<svg xmlns="http://www.w3.org/2000/svg" width="640" height="300" viewBox="0 0 640 300">
<defs><filter id="glow"><feGaussianBlur stdDeviation="3"/></filter><radialGradient id="vg" cx="50%" cy="45%" r="70%"><stop offset="55%" stop-color="#0E0B02" stop-opacity="0"/><stop offset="100%" stop-color="#0E0B02" stop-opacity="0.65"/></radialGradient></defs>
<rect width="640" height="300" fill="#0E0B02"/>
<rect x="320" y="20" width="6" height="6" fill="#FFB000" opacity="0.9"/>
<rect x="314" y="26" width="6" height="6" fill="#FFB000" opacity="0.9"/>
<rect x="320" y="26" width="6" height="6" fill="#FFB000" opacity="0.9"/>
<rect x="326" y="26" width="6" height="6" fill="#FFB000" opacity="0.9"/>
<rect x="308" y="32" width="6" height="6" fill="#FFB000" opacity="0.9"/>
<rect x="314" y="32" width="6" height="6" fill="#FFB000" opacity="0.9"/>
<rect x="332" y="32" width="6" height="6" fill="#FFB000" opacity="0.9"/>
<rect x="302" y="38" width="6" height="6" fill="#FFB000" opacity="0.9"/>
<rect x="308" y="38" width="6" height="6" fill="#FFB000" opacity="0.9"/>
<rect x="320" y="38" width="6" height="6" fill="#FFB000" opacity="0.9"/>
<rect x="326" y="38" width="6" height="6" fill="#FFB000" opacity="0.9"/>
<rect x="332" y="38" width="6" height="6" fill="#FFB000" opacity="0.9"/>
<rect x="338" y="38" width="6" height="6" fill="#FFB000" opacity="0.9"/>
<rect x="296" y="44" width="6" height="6" fill="#FFB000" opacity="0.9"/>
<rect x="302" y="44" width="6" height="6" fill="#FFB000" opacity="0.9"/>
<rect x="320" y="44" width="6" height="6" fill="#FFB000" opacity="0.9"/>
<rect x="344" y="44" width="6" height="6" fill="#FFB000" opacity="0.9"/>
<rect x="290" y="50" width="6" height="6" fill="#FFB000" opacity="0.9"/>
<rect x="296" y="50" width="6" height="6" fill="#FFB000" opacity="0.9"/>
<rect x="308" y="50" width="6" height="6" fill="#FFB000" opacity="0.9"/>
<rect x="314" y="50" width="6" height="6" fill="#FFB000" opacity="0.9"/>
<rect x="320" y="50" width="6" height="6" fill="#FFB000" opacity="0.9"/>
<rect x="326" y="50" width="6" height="6" fill="#FFB000" opacity="0.9"/>
<rect x="338" y="50" width="6" height="6" fill="#FFB000" opacity="0.9"/>
<rect x="344" y="50" width="6" height="6" fill="#FFB000" opacity="0.9"/>
<rect x="350" y="50" width="6" height="6" fill="#FFB000" opacity="0.9"/>
<rect x="284" y="56" width="6" height="6" fill="#FFB000" opacity="0.9"/>
<rect x="290" y="56" width="6" height="6" fill="#FFB000" opacity="0.9"/>
<rect x="308" y="56" width="6" height="6" fill="#FFB000" opacity="0.9"/>
<rect x="338" y="56" width="6" height="6" fill="#FFB000" opacity="0.9"/>
<rect x="356" y="56" width="6" height="6" fill="#FFB000" opacity="0.9"/>
<rect x="278" y="62" width="6" height="6" fill="#FFB000" opacity="0.9"/>
<rect x="284" y="62" width="6" height="6" fill="#FFB000" opacity="0.9"/>
<rect x="296" y="62" width="6" height="6" fill="#FFB000" opacity="0.9"/>
<rect x="302" y="62" width="6" height="6" fill="#FFB000" opacity="0.9"/>
<rect x="308" y="62" width="6" height="6" fill="#FFB000" opacity="0.9"/>
<rect x="314" y="62" width="6" height="6" fill="#FFB000" opacity="0.9"/>
<rect x="332" y="62" width="6" height="6" fill="#FFB000" opacity="0.9"/>
<rect x="338" y="62" width="6" height="6" fill="#FFB000" opacity="0.9"/>
<rect x="344" y="62" width="6" height="6" fill="#FFB000" opacity="0.9"/>
<rect x="350" y="62" width="6" height="6" fill="#FFB000" opacity="0.9"/>
<rect x="356" y="62" width="6" height="6" fill="#FFB000" opacity="0.9"/>
<rect x="362" y="62" width="6" height="6" fill="#FFB000" opacity="0.9"/>
<rect x="272" y="68" width="6" height="6" fill="#FF9500" opacity="0.85"/>
<rect x="278" y="68" width="6" height="6" fill="#FFB000" opacity="0.9"/>
<rect x="296" y="68" width="6" height="6" fill="#FFB000" opacity="0.9"/>
<rect x="320" y="68" width="6" height="6" fill="#FFB000" opacity="0.9"/>
<rect x="326" y="68" width="6" height="6" fill="#FFB000" opacity="0.9"/>
<rect x="332" y="68" width="6" height="6" fill="#FFB000" opacity="0.9"/>
<rect x="368" y="68" width="6" height="6" fill="#FF9500" opacity="0.85"/>
<rect x="266" y="74" width="6" height="6" fill="#FF9500" opacity="0.85"/>
<rect x="272" y="74" width="6" height="6" fill="#FF9500" opacity="0.85"/>
<rect x="284" y="74" width="6" height="6" fill="#FFB000" opacity="0.9"/>
<rect x="290" y="74" width="6" height="6" fill="#FFB000" opacity="0.9"/>
<rect x="296" y="74" width="6" height="6" fill="#FFB000" opacity="0.9"/>
<rect x="302" y="74" width="6" height="6" fill="#FFB000" opacity="0.9"/>
<rect x="314" y="74" width="6" height="6" fill="#FFB000" opacity="0.9"/>
<rect x="320" y="74" width="6" height="6" fill="#FFB000" opacity="0.9"/>
<rect x="338" y="74" width="6" height="6" fill="#FFB000" opacity="0.9"/>
<rect x="362" y="74" width="6" height="6" fill="#FFB000" opacity="0.9"/>
<rect x="368" y="74" width="6" height="6" fill="#FF9500" opacity="0.85"/>
<rect x="374" y="74" width="6" height="6" fill="#FF9500" opacity="0.85"/>
<rect x="260" y="80" width="6" height="6" fill="#FF9500" opacity="0.85"/>
<rect x="266" y="80" width="6" height="6" fill="#FF9500" opacity="0.85"/>
<rect x="284" y="80" width="6" height="6" fill="#FFB000" opacity="0.9"/>
<rect x="314" y="80" width="6" height="6" fill="#FFB000" opacity="0.9"/>
<rect x="326" y="80" width="6" height="6" fill="#FFB000" opacity="0.9"/>
<rect x="332" y="80" width="6" height="6" fill="#FFB000" opacity="0.9"/>
<rect x="338" y="80" width="6" height="6" fill="#FFB000" opacity="0.9"/>
<rect x="344" y="80" width="6" height="6" fill="#FFB000" opacity="0.9"/>
<rect x="356" y="80" width="6" height="6" fill="#FFB000" opacity="0.9"/>
<rect x="362" y="80" width="6" height="6" fill="#FFB000" opacity="0.9"/>
<rect x="380" y="80" width="6" height="6" fill="#FF9500" opacity="0.85"/>
<rect x="254" y="86" width="6" height="6" fill="#FF9500" opacity="0.85"/>
<rect x="260" y="86" width="6" height="6" fill="#FF9500" opacity="0.85"/>
<rect x="272" y="86" width="6" height="6" fill="#FF9500" opacity="0.85"/>
<rect x="278" y="86" width="6" height="6" fill="#FFB000" opacity="0.9"/>
<rect x="284" y="86" width="6" height="6" fill="#FFB000" opacity="0.9"/>
<rect x="290" y="86" width="6" height="6" fill="#FFB000" opacity="0.9"/>
<rect x="308" y="86" width="6" height="6" fill="#FFB000" opacity="0.9"/>
<rect x="314" y="86" width="6" height="6" fill="#FFB000" opacity="0.9"/>
<rect x="326" y="86" width="6" height="6" fill="#FFB000" opacity="0.9"/>
<rect x="356" y="86" width="6" height="6" fill="#FFB000" opacity="0.9"/>
<rect x="368" y="86" width="6" height="6" fill="#FF9500" opacity="0.85"/>
<rect x="374" y="86" width="6" height="6" fill="#FF9500" opacity="0.85"/>
<rect x="380" y="86" width="6" height="6" fill="#FF9500" opacity="0.85"/>
<rect x="386" y="86" width="6" height="6" fill="#FF9500" opacity="0.85"/>
<rect x="248" y="92" width="6" height="6" fill="#FF9500" opacity="0.85"/>
<rect x="254" y="92" width="6" height="6" fill="#FF9500" opacity="0.85"/>
<rect x="272" y="92" width="6" height="6" fill="#FF9500" opacity="0.85"/>
<rect x="296" y="92" width="6" height="6" fill="#FFB000" opacity="0.9"/>
<rect x="302" y="92" width="6" height="6" fill="#FFB000" opacity="0.9"/>
<rect x="308" y="92" width="6" height="6" fill="#FFB000" opacity="0.9"/>
<rect x="326" y="92" width="6" height="6" fill="#FFB000" opacity="0.9"/>
<rect x="332" y="92" width="6" height="6" fill="#FFB000" opacity="0.9"/>
<rect x="350" y="92" width="6" height="6" fill="#FFB000" opacity="0.9"/>
<rect x="356" y="92" width="6" height="6" fill="#FFB000" opacity="0.9"/>
<rect x="368" y="92" width="6" height="6" fill="#FF9500" opacity="0.85"/>
<rect x="392" y="92" width="6" height="6" fill="#FF9500" opacity="0.85"/>
<rect x="242" y="98" width="6" height="6" fill="#FF9500" opacity="0.85"/>
<rect x="248" y="98" width="6" height="6" fill="#FF9500" opacity="0.85"/>
<rect x="260" y="98" width="6" height="6" fill="#FF9500" opacity="0.85"/>
<rect x="266" y="98" width="6" height="6" fill="#FF9500" opacity="0.85"/>
<rect x="272" y="98" width="6" height="6" fill="#FF9500" opacity="0.85"/>
<rect x="278" y="98" width="6" height="6" fill="#FFB000" opacity="0.9"/>
<rect x="290" y="98" width="6" height="6" fill="#FFB000" opacity="0.9"/>
<rect x="296" y="98" width="6" height="6" fill="#FFB000" opacity="0.9"/>
<rect x="314" y="98" width="6" height="6" fill="#FFB000" opacity="0.9"/>
<rect x="320" y="98" width="6" height="6" fill="#FFB000" opacity="0.9"/>
<rect x="326" y="98" width="6" height="6" fill="#FFB000" opacity="0.9"/>
<rect x="338" y="98" width="6" height="6" fill="#FFB000" opacity="0.9"/>
<rect x="344" y="98" width="6" height="6" fill="#FFB000" opacity="0.9"/>
<rect x="350" y="98" width="6" height="6" fill="#FFB000" opacity="0.9"/>
<rect x="368" y="98" width="6" height="6" fill="#FF9500" opacity="0.85"/>
<rect x="374" y="98" width="6" height="6" fill="#FF9500" opacity="0.85"/>
<rect x="386" y="98" width="6" height="6" fill="#FF9500" opacity="0.85"/>
<rect x="392" y="98" width="6" height="6" fill="#FF9500" opacity="0.85"/>
<rect x="398" y="98" width="6" height="6" fill="#FF9500" opacity="0.85"/>
<rect x="236" y="104" width="6" height="6" fill="#FF9500" opacity="0.85"/>
<rect x="242" y="104" width="6" height="6" fill="#FF9500" opacity="0.85"/>
<rect x="260" y="104" width="6" height="6" fill="#FF9500" opacity="0.85"/>
<rect x="290" y="104" width="6" height="6" fill="#FFB000" opacity="0.9"/>
<rect x="302" y="104" width="6" height="6" fill="#FFB000" opacity="0.9"/>
<rect x="308" y="104" width="6" height="6" fill="#FFB000" opacity="0.9"/>
<rect x="314" y="104" width="6" height="6" fill="#FFB000" opacity="0.9"/>
<rect x="338" y="104" width="6" height="6" fill="#FFB000" opacity="0.9"/>
<rect x="356" y="104" width="6" height="6" fill="#FFB000" opacity="0.9"/>
<rect x="362" y="104" width="6" height="6" fill="#FFB000" opacity="0.9"/>
<rect x="368" y="104" width="6" height="6" fill="#FF9500" opacity="0.85"/>
<rect x="386" y="104" width="6" height="6" fill="#FF9500" opacity="0.85"/>
<rect x="404" y="104" width="6" height="6" fill="#FF9500" opacity="0.85"/>
<rect x="230" y="110" width="6" height="6" fill="#CC8800" opacity="0.7"/>
<rect x="236" y="110" width="6" height="6" fill="#FF9500" opacity="0.85"/>
<rect x="248" y="110" width="6" height="6" fill="#FF9500" opacity="0.85"/>
<rect x="254" y="110" width="6" height="6" fill="#FF9500" opacity="0.85"/>
<rect x="260" y="110" width="6" height="6" fill="#FF9500" opacity="0.85"/>
<rect x="266" y="110" width="6" height="6" fill="#FF9500" opacity="0.85"/>
<rect x="284" y="110" width="6" height="6" fill="#FFB000" opacity="0.9"/>
<rect x="290" y="110" width="6" height="6" fill="#FFB000" opacity="0.9"/>
<rect x="302" y="110" width="6" height="6" fill="#FFB000" opacity="0.9"/>
<rect x="320" y="110" width="6" height="6" fill="#FFB000" opacity="0.9"/>
<rect x="332" y="110" width="6" height="6" fill="#FFB000" opacity="0.9"/>
<rect x="338" y="110" width="6" height="6" fill="#FFB000" opacity="0.9"/>
<rect x="344" y="110" width="6" height="6" fill="#FFB000" opacity="0.9"/>
<rect x="350" y="110" width="6" height="6" fill="#FFB000" opacity="0.9"/>
<rect x="356" y="110" width="6" height="6" fill="#FFB000" opacity="0.9"/>
<rect x="374" y="110" width="6" height="6" fill="#FF9500" opacity="0.85"/>
<rect x="380" y="110" width="6" height="6" fill="#FF9500" opacity="0.85"/>
<rect x="386" y="110" width="6" height="6" fill="#FF9500" opacity="0.85"/>
<rect x="392" y="110" width="6" height="6" fill="#FF9500" opacity="0.85"/>
<rect x="398" y="110" width="6" height="6" fill="#FF9500" opacity="0.85"/>
<rect x="404" y="110" width="6" height="6" fill="#FF9500" opacity="0.85"/>
<rect x="410" y="110" width="6" height="6" fill="#CC8800" opacity="0.7"/>
<rect x="224" y="116" width="6" height="6" fill="#CC8800" opacity="0.7"/>
<rect x="230" y="116" width="6" height="6" fill="#CC8800" opacity="0.7"/>
<rect x="248" y="116" width="6" height="6" fill="#FF9500" opacity="0.85"/>
<rect x="272" y="116" width="6" height="6" fill="#FF9500" opacity="0.85"/>
<rect x="278" y="116" width="6" height="6" fill="#FFB000" opacity="0.9"/>
<rect x="284" y="116" width="6" height="6" fill="#FFB000" opacity="0.9"/>
<rect x="302" y="116" width="6" height="6" fill="#FFB000" opacity="0.9"/>
<rect x="308" y="116" width="6" height="6" fill="#FFB000" opacity="0.9"/>
<rect x="314" y="116" width="6" height="6" fill="#FFB000" opacity="0.9"/>
<rect x="320" y="116" width="6" height="6" fill="#FFB000" opacity="0.9"/>
<rect x="332" y="116" width="6" height="6" fill="#FFB000" opacity="0.9"/>
<rect x="362" y="116" width="6" height="6" fill="#FFB000" opacity="0.9"/>
<rect x="368" y="116" width="6" height="6" fill="#FF9500" opacity="0.85"/>
<rect x="374" y="116" width="6" height="6" fill="#FF9500" opacity="0.85"/>
<rect x="416" y="116" width="6" height="6" fill="#CC8800" opacity="0.7"/>
<rect x="218" y="122" width="6" height="6" fill="#CC8800" opacity="0.7"/>
<rect x="224" y="122" width="6" height="6" fill="#CC8800" opacity="0.7"/>
<rect x="236" y="122" width="6" height="6" fill="#FF9500" opacity="0.85"/>
<rect x="242" y="122" width="6" height="6" fill="#FF9500" opacity="0.85"/>
<rect x="248" y="122" width="6" height="6" fill="#FF9500" opacity="0.85"/>
<rect x="254" y="122" width="6" height="6" fill="#FF9500" opacity="0.85"/>
<rect x="266" y="122" width="6" height="6" fill="#FF9500" opacity="0.85"/>
<rect x="272" y="122" width="6" height="6" fill="#FF9500" opacity="0.85"/>
<rect x="290" y="122" width="6" height="6" fill="#FFB000" opacity="0.9"/>
<rect x="296" y="122" width="6" height="6" fill="#FFB000" opacity="0.9"/>
<rect x="302" y="122" width="6" height="6" fill="#FFB000" opacity="0.9"/>
<rect x="332" y="122" width="6" height="6" fill="#FFB000" opacity="0.9"/>
<rect x="338" y="122" width="6" height="6" fill="#FFB000" opacity="0.9"/>
<rect x="356" y="122" width="6" height="6" fill="#FFB000" opacity="0.9"/>
<rect x="362" y="122" width="6" height="6" fill="#FFB000" opacity="0.9"/>
<rect x="380" y="122" width="6" height="6" fill="#FF9500" opacity="0.85"/>
<rect x="410" y="122" width="6" height="6" fill="#CC8800" opacity="0.7"/>
<rect x="416" y="122" width="6" height="6" fill="#CC8800" opacity="0.7"/>
<rect x="422" y="122" width="6" height="6" fill="#CC8800" opacity="0.7"/>
<rect x="212" y="128" width="6" height="6" fill="#CC8800" opacity="0.7"/>
<rect x="218" y="128" width="6" height="6" fill="#CC8800" opacity="0.7"/>
<rect x="236" y="128" width="6" height="6" fill="#FF9500" opacity="0.85"/>
<rect x="266" y="128" width="6" height="6" fill="#FF9500" opacity="0.85"/>
<rect x="278" y="128" width="6" height="6" fill="#FFB000" opacity="0.9"/>
<rect x="284" y="128" width="6" height="6" fill="#FFB000" opacity="0.9"/>
<rect x="290" y="128" width="6" height="6" fill="#FFB000" opacity="0.9"/>
<rect x="308" y="128" width="6" height="6" fill="#FFB000" opacity="0.9"/>
<rect x="326" y="128" width="6" height="6" fill="#FFB000" opacity="0.9"/>
<rect x="332" y="128" width="6" height="6" fill="#FFB000" opacity="0.9"/>
<rect x="344" y="128" width="6" height="6" fill="#FFB000" opacity="0.9"/>
<rect x="350" y="128" width="6" height="6" fill="#FFB000" opacity="0.9"/>
<rect x="356" y="128" width="6" height="6" fill="#FFB000" opacity="0.9"/>
<rect x="368" y="128" width="6" height="6" fill="#FF9500" opacity="0.85"/>
<rect x="374" y="128" width="6" height="6" fill="#FF9500" opacity="0.85"/>
<rect x="380" y="128" width="6" height="6" fill="#FF9500" opacity="0.85"/>
<rect x="386" y="128" width="6" height="6" fill="#FF9500" opacity="0.85"/>
<rect x="404" y="128" width="6" height="6" fill="#FF9500" opacity="0.85"/>
<rect x="410" y="128" width="6" height="6" fill="#CC8800" opacity="0.7"/>
<rect x="428" y="128" width="6" height="6" fill="#CC8800" opacity="0.7"/>
<rect x="206" y="134" width="6" height="6" fill="#CC8800" opacity="0.7"/>
<rect x="212" y="134" width="6" height="6" fill="#CC8800" opacity="0.7"/>
<rect x="224" y="134" width="6" height="6" fill="#CC8800" opacity="0.7"/>
<rect x="230" y="134" width="6" height="6" fill="#CC8800" opacity="0.7"/>
<rect x="236" y="134" width="6" height="6" fill="#FF9500" opacity="0.85"/>
<rect x="242" y="134" width="6" height="6" fill="#FF9500" opacity="0.85"/>
<rect x="260" y="134" width="6" height="6" fill="#FF9500" opacity="0.85"/>
<rect x="266" y="134" width="6" height="6" fill="#FF9500" opacity="0.85"/>
<rect x="278" y="134" width="6" height="6" fill="#FFB000" opacity="0.9"/>
<rect x="296" y="134" width="6" height="6" fill="#FFB000" opacity="0.9"/>
<rect x="302" y="134" width="6" height="6" fill="#FFB000" opacity="0.9"/>
<rect x="308" y="134" width="6" height="6" fill="#FFB000" opacity="0.9"/>
<rect x="314" y="134" width="6" height="6" fill="#FFB000" opacity="0.9"/>
<rect x="320" y="134" width="6" height="6" fill="#FFB000" opacity="0.9"/>
<rect x="326" y="134" width="6" height="6" fill="#FFB000" opacity="0.9"/>
<rect x="344" y="134" width="6" height="6" fill="#FFB000" opacity="0.9"/>
<rect x="368" y="134" width="6" height="6" fill="#FF9500" opacity="0.85"/>
<rect x="392" y="134" width="6" height="6" fill="#FF9500" opacity="0.85"/>
<rect x="398" y="134" width="6" height="6" fill="#FF9500" opacity="0.85"/>
<rect x="404" y="134" width="6" height="6" fill="#FF9500" opacity="0.85"/>
<rect x="416" y="134" width="6" height="6" fill="#CC8800" opacity="0.7"/>
<rect x="422" y="134" width="6" height="6" fill="#CC8800" opacity="0.7"/>
<rect x="428" y="134" width="6" height="6" fill="#CC8800" opacity="0.7"/>
<rect x="434" y="134" width="6" height="6" fill="#CC8800" opacity="0.7"/>
<rect x="200" y="140" width="6" height="6" fill="#CC8800" opacity="0.7"/>
<rect x="206" y="140" width="6" height="6" fill="#CC8800" opacity="0.7"/>
<rect x="224" y="140" width="6" height="6" fill="#CC8800" opacity="0.7"/>
<rect x="248" y="140" width="6" height="6" fill="#FF9500" opacity="0.85"/>
<rect x="254" y="140" width="6" height="6" fill="#FF9500" opacity="0.85"/>
<rect x="260" y="140" width="6" height="6" fill="#FF9500" opacity="0.85"/>
<rect x="278" y="140" width="6" height="6" fill="#FFB000" opacity="0.9"/>
<rect x="284" y="140" width="6" height="6" fill="#FFB000" opacity="0.9"/>
<rect x="290" y="140" width="6" height="6" fill="#FFB000" opacity="0.9"/>
<rect x="296" y="140" width="6" height="6" fill="#FFB000" opacity="0.9"/>
<rect x="332" y="140" width="6" height="6" fill="#FFB000" opacity="0.9"/>
<rect x="338" y="140" width="6" height="6" fill="#FFB000" opacity="0.9"/>
<rect x="344" y="140" width="6" height="6" fill="#FFB000" opacity="0.9"/>
<rect x="350" y="140" width="6" height="6" fill="#FFB000" opacity="0.9"/>
<rect x="362" y="140" width="6" height="6" fill="#FFB000" opacity="0.9"/>
<rect x="368" y="140" width="6" height="6" fill="#FF9500" opacity="0.85"/>
<rect x="374" y="140" width="6" height="6" fill="#FF9500" opacity="0.85"/>
<rect x="386" y="140" width="6" height="6" fill="#FF9500" opacity="0.85"/>
<rect x="392" y="140" width="6" height="6" fill="#FF9500" opacity="0.85"/>
<rect x="416" y="140" width="6" height="6" fill="#CC8800" opacity="0.7"/>
<rect x="440" y="140" width="6" height="6" fill="#CC8800" opacity="0.7"/>
<rect x="194" y="146" width="6" height="6" fill="#CC8800" opacity="0.7"/>
<rect x="200" y="146" width="6" height="6" fill="#CC8800" opacity="0.7"/>
<rect x="212" y="146" width="6" height="6" fill="#CC8800" opacity="0.7"/>
<rect x="218" y="146" width="6" height="6" fill="#CC8800" opacity="0.7"/>
<rect x="224" y="146" width="6" height="6" fill="#CC8800" opacity="0.7"/>
<rect x="230" y="146" width="6" height="6" fill="#CC8800" opacity="0.7"/>
<rect x="242" y="146" width="6" height="6" fill="#FF9500" opacity="0.85"/>
<rect x="248" y="146" width="6" height="6" fill="#FF9500" opacity="0.85"/>
<rect x="266" y="146" width="6" height="6" fill="#FF9500" opacity="0.85"/>
<rect x="272" y="146" width="6" height="6" fill="#FF9500" opacity="0.85"/>
<rect x="278" y="146" width="6" height="6" fill="#FFB000" opacity="0.9"/>
<rect x="302" y="146" width="6" height="6" fill="#FFB000" opacity="0.9"/>
<rect x="326" y="146" width="6" height="6" fill="#FFB000" opacity="0.9"/>
<rect x="332" y="146" width="6" height="6" fill="#FFB000" opacity="0.9"/>
<rect x="362" y="146" width="6" height="6" fill="#FFB000" opacity="0.9"/>
<rect x="386" y="146" width="6" height="6" fill="#FF9500" opacity="0.85"/>
<rect x="398" y="146" width="6" height="6" fill="#FF9500" opacity="0.85"/>
<rect x="410" y="146" width="6" height="6" fill="#CC8800" opacity="0.7"/>
<rect x="416" y="146" width="6" height="6" fill="#CC8800" opacity="0.7"/>
<rect x="422" y="146" width="6" height="6" fill="#CC8800" opacity="0.7"/>
<rect x="434" y="146" width="6" height="6" fill="#CC8800" opacity="0.7"/>
<rect x="440" y="146" width="6" height="6" fill="#CC8800" opacity="0.7"/>
<rect x="446" y="146" width="6" height="6" fill="#CC8800" opacity="0.7"/>
<rect x="188" y="152" width="6" height="6" fill="#CC8800" opacity="0.7"/>
<rect x="194" y="152" width="6" height="6" fill="#CC8800" opacity="0.7"/>
<rect x="212" y="152" width="6" height="6" fill="#CC8800" opacity="0.7"/>
<rect x="242" y="152" width="6" height="6" fill="#FF9500" opacity="0.85"/>
<rect x="254" y="152" width="6" height="6" fill="#FF9500" opacity="0.85"/>
<rect x="260" y="152" width="6" height="6" fill="#FF9500" opacity="0.85"/>
<rect x="266" y="152" width="6" height="6" fill="#FF9500" opacity="0.85"/>
<rect x="284" y="152" width="6" height="6" fill="#FFB000" opacity="0.9"/>
<rect x="296" y="152" width="6" height="6" fill="#FFB000" opacity="0.9"/>
<rect x="302" y="152" width="6" height="6" fill="#FFB000" opacity="0.9"/>
<rect x="308" y="152" width="6" height="6" fill="#FFB000" opacity="0.9"/>
<rect x="320" y="152" width="6" height="6" fill="#FFB000" opacity="0.9"/>
<rect x="326" y="152" width="6" height="6" fill="#FFB000" opacity="0.9"/>
<rect x="338" y="152" width="6" height="6" fill="#FFB000" opacity="0.9"/>
<rect x="356" y="152" width="6" height="6" fill="#FFB000" opacity="0.9"/>
<rect x="362" y="152" width="6" height="6" fill="#FFB000" opacity="0.9"/>
<rect x="368" y="152" width="6" height="6" fill="#FF9500" opacity="0.85"/>
<rect x="380" y="152" width="6" height="6" fill="#FF9500" opacity="0.85"/>
<rect x="386" y="152" width="6" height="6" fill="#FF9500" opacity="0.85"/>
<rect x="398" y="152" width="6" height="6" fill="#FF9500" opacity="0.85"/>
<rect x="410" y="152" width="6" height="6" fill="#CC8800" opacity="0.7"/>
<rect x="434" y="152" width="6" height="6" fill="#CC8800" opacity="0.7"/>
<rect x="452" y="152" width="6" height="6" fill="#CC8800" opacity="0.7"/>
<rect x="182" y="158" width="6" height="6" fill="#CC8800" opacity="0.7"/>
<rect x="188" y="158" width="6" height="6" fill="#CC8800" opacity="0.7"/>
<rect x="200" y="158" width="6" height="6" fill="#CC8800" opacity="0.7"/>
<rect x="206" y="158" width="6" height="6" fill="#CC8800" opacity="0.7"/>
<rect x="212" y="158" width="6" height="6" fill="#CC8800" opacity="0.7"/>
<rect x="218" y="158" width="6" height="6" fill="#CC8800" opacity="0.7"/>
<rect x="236" y="158" width="6" height="6" fill="#FF9500" opacity="0.85"/>
<rect x="242" y="158" width="6" height="6" fill="#FF9500" opacity="0.85"/>
<rect x="254" y="158" width="6" height="6" fill="#FF9500" opacity="0.85"/>
<rect x="272" y="158" width="6" height="6" fill="#FF9500" opacity="0.85"/>
<rect x="278" y="158" width="6" height="6" fill="#FFB000" opacity="0.9"/>
<rect x="284" y="158" width="6" height="6" fill="#FFB000" opacity="0.9"/>
<rect x="296" y="158" width="6" height="6" fill="#FFB000" opacity="0.9"/>
<rect x="320" y="158" width="6" height="6" fill="#FFB000" opacity="0.9"/>
<rect x="338" y="158" width="6" height="6" fill="#FFB000" opacity="0.9"/>
<rect x="344" y="158" width="6" height="6" fill="#FFB000" opacity="0.9"/>
<rect x="350" y="158" width="6" height="6" fill="#FFB000" opacity="0.9"/>
<rect x="356" y="158" width="6" height="6" fill="#FFB000" opacity="0.9"/>
<rect x="380" y="158" width="6" height="6" fill="#FF9500" opacity="0.85"/>
<rect x="398" y="158" width="6" height="6" fill="#FF9500" opacity="0.85"/>
<rect x="410" y="158" width="6" height="6" fill="#CC8800" opacity="0.7"/>
<rect x="416" y="158" width="6" height="6" fill="#CC8800" opacity="0.7"/>
<rect x="428" y="158" width="6" height="6" fill="#CC8800" opacity="0.7"/>
<rect x="434" y="158" width="6" height="6" fill="#CC8800" opacity="0.7"/>
<rect x="440" y="158" width="6" height="6" fill="#CC8800" opacity="0.7"/>
<rect x="446" y="158" width="6" height="6" fill="#CC8800" opacity="0.7"/>
<rect x="452" y="158" width="6" height="6" fill="#CC8800" opacity="0.7"/>
<rect x="458" y="158" width="6" height="6" fill="#CC8800" opacity="0.7"/>
<rect x="176" y="164" width="6" height="6" fill="#CC8800" opacity="0.7"/>
<rect x="182" y="164" width="6" height="6" fill="#CC8800" opacity="0.7"/>
<rect x="200" y="164" width="6" height="6" fill="#CC8800" opacity="0.7"/>
<rect x="224" y="164" width="6" height="6" fill="#CC8800" opacity="0.7"/>
<rect x="230" y="164" width="6" height="6" fill="#CC8800" opacity="0.7"/>
<rect x="236" y="164" width="6" height="6" fill="#FF9500" opacity="0.85"/>
<rect x="254" y="164" width="6" height="6" fill="#FF9500" opacity="0.85"/>
<rect x="260" y="164" width="6" height="6" fill="#FF9500" opacity="0.85"/>
<rect x="266" y="164" width="6" height="6" fill="#FF9500" opacity="0.85"/>
<rect x="272" y="164" width="6" height="6" fill="#FF9500" opacity="0.85"/>
<rect x="296" y="164" width="6" height="6" fill="#FFB000" opacity="0.9"/>
<rect x="302" y="164" width="6" height="6" fill="#FFB000" opacity="0.9"/>
<rect x="314" y="164" width="6" height="6" fill="#FFB000" opacity="0.9"/>
<rect x="320" y="164" width="6" height="6" fill="#FFB000" opacity="0.9"/>
<rect x="326" y="164" width="6" height="6" fill="#FFB000" opacity="0.9"/>
<rect x="332" y="164" width="6" height="6" fill="#FFB000" opacity="0.9"/>
<rect x="338" y="164" width="6" height="6" fill="#FFB000" opacity="0.9"/>
<rect x="362" y="164" width="6" height="6" fill="#FFB000" opacity="0.9"/>
<rect x="374" y="164" width="6" height="6" fill="#FF9500" opacity="0.85"/>
<rect x="380" y="164" width="6" height="6" fill="#FF9500" opacity="0.85"/>
<rect x="386" y="164" width="6" height="6" fill="#FF9500" opacity="0.85"/>
<rect x="392" y="164" width="6" height="6" fill="#FF9500" opacity="0.85"/>
<rect x="398" y="164" width="6" height="6" fill="#FF9500" opacity="0.85"/>
<rect x="410" y="164" width="6" height="6" fill="#CC8800" opacity="0.7"/>
<rect x="428" y="164" width="6" height="6" fill="#CC8800" opacity="0.7"/>
<rect x="464" y="164" width="6" height="6" fill="#CC8800" opacity="0.7"/>
<rect x="170" y="170" width="6" height="6" fill="#7A5200" opacity="0.5"/>
<rect x="176" y="170" width="6" height="6" fill="#CC8800" opacity="0.7"/>
<rect x="188" y="170" width="6" height="6" fill="#CC8800" opacity="0.7"/>
<rect x="194" y="170" width="6" height="6" fill="#CC8800" opacity="0.7"/>
<rect x="200" y="170" width="6" height="6" fill="#CC8800" opacity="0.7"/>
<rect x="206" y="170" width="6" height="6" fill="#CC8800" opacity="0.7"/>
<rect x="218" y="170" width="6" height="6" fill="#CC8800" opacity="0.7"/>
<rect x="224" y="170" width="6" height="6" fill="#CC8800" opacity="0.7"/>
<rect x="242" y="170" width="6" height="6" fill="#FF9500" opacity="0.85"/>
<rect x="248" y="170" width="6" height="6" fill="#FF9500" opacity="0.85"/>
<rect x="254" y="170" width="6" height="6" fill="#FF9500" opacity="0.85"/>
<rect x="278" y="170" width="6" height="6" fill="#FFB000" opacity="0.9"/>
<rect x="290" y="170" width="6" height="6" fill="#FFB000" opacity="0.9"/>
<rect x="296" y="170" width="6" height="6" fill="#FFB000" opacity="0.9"/>
<rect x="314" y="170" width="6" height="6" fill="#FFB000" opacity="0.9"/>
<rect x="344" y="170" width="6" height="6" fill="#FFB000" opacity="0.9"/>
<rect x="356" y="170" width="6" height="6" fill="#FFB000" opacity="0.9"/>
<rect x="362" y="170" width="6" height="6" fill="#FFB000" opacity="0.9"/>
<rect x="374" y="170" width="6" height="6" fill="#FF9500" opacity="0.85"/>
<rect x="410" y="170" width="6" height="6" fill="#CC8800" opacity="0.7"/>
<rect x="416" y="170" width="6" height="6" fill="#CC8800" opacity="0.7"/>
<rect x="422" y="170" width="6" height="6" fill="#CC8800" opacity="0.7"/>
<rect x="428" y="170" width="6" height="6" fill="#CC8800" opacity="0.7"/>
<rect x="434" y="170" width="6" height="6" fill="#CC8800" opacity="0.7"/>
<rect x="458" y="170" width="6" height="6" fill="#CC8800" opacity="0.7"/>
<rect x="464" y="170" width="6" height="6" fill="#CC8800" opacity="0.7"/>
<rect x="470" y="170" width="6" height="6" fill="#7A5200" opacity="0.5"/>
<rect x="164" y="176" width="6" height="6" fill="#7A5200" opacity="0.5"/>
<rect x="170" y="176" width="6" height="6" fill="#7A5200" opacity="0.5"/>
<rect x="188" y="176" width="6" height="6" fill="#CC8800" opacity="0.7"/>
<rect x="218" y="176" width="6" height="6" fill="#CC8800" opacity="0.7"/>
<rect x="230" y="176" width="6" height="6" fill="#CC8800" opacity="0.7"/>
<rect x="236" y="176" width="6" height="6" fill="#FF9500" opacity="0.85"/>
<rect x="242" y="176" width="6" height="6" fill="#FF9500" opacity="0.85"/>
<rect x="260" y="176" width="6" height="6" fill="#FF9500" opacity="0.85"/>
<rect x="272" y="176" width="6" height="6" fill="#FF9500" opacity="0.85"/>
<rect x="278" y="176" width="6" height="6" fill="#FFB000" opacity="0.9"/>
<rect x="290" y="176" width="6" height="6" fill="#FFB000" opacity="0.9"/>
<rect x="302" y="176" width="6" height="6" fill="#FFB000" opacity="0.9"/>
<rect x="308" y="176" width="6" height="6" fill="#FFB000" opacity="0.9"/>
<rect x="314" y="176" width="6" height="6" fill="#FFB000" opacity="0.9"/>
<rect x="320" y="176" width="6" height="6" fill="#FFB000" opacity="0.9"/>
<rect x="338" y="176" width="6" height="6" fill="#FFB000" opacity="0.9"/>
<rect x="344" y="176" width="6" height="6" fill="#FFB000" opacity="0.9"/>
<rect x="356" y="176" width="6" height="6" fill="#FFB000" opacity="0.9"/>
<rect x="374" y="176" width="6" height="6" fill="#FF9500" opacity="0.85"/>
<rect x="380" y="176" width="6" height="6" fill="#FF9500" opacity="0.85"/>
<rect x="404" y="176" width="6" height="6" fill="#FF9500" opacity="0.85"/>
<rect x="410" y="176" width="6" height="6" fill="#CC8800" opacity="0.7"/>
<rect x="440" y="176" width="6" height="6" fill="#CC8800" opacity="0.7"/>
<rect x="452" y="176" width="6" height="6" fill="#CC8800" opacity="0.7"/>
<rect x="458" y="176" width="6" height="6" fill="#CC8800" opacity="0.7"/>
<rect x="476" y="176" width="6" height="6" fill="#7A5200" opacity="0.5"/>
<rect x="158" y="182" width="6" height="6" fill="#7A5200" opacity="0.5"/>
<rect x="164" y="182" width="6" height="6" fill="#7A5200" opacity="0.5"/>
<rect x="176" y="182" width="6" height="6" fill="#CC8800" opacity="0.7"/>
<rect x="182" y="182" width="6" height="6" fill="#CC8800" opacity="0.7"/>
<rect x="188" y="182" width="6" height="6" fill="#CC8800" opacity="0.7"/>
<rect x="194" y="182" width="6" height="6" fill="#CC8800" opacity="0.7"/>
<rect x="212" y="182" width="6" height="6" fill="#CC8800" opacity="0.7"/>
<rect x="218" y="182" width="6" height="6" fill="#CC8800" opacity="0.7"/>
<rect x="230" y="182" width="6" height="6" fill="#CC8800" opacity="0.7"/>
<rect x="248" y="182" width="6" height="6" fill="#FF9500" opacity="0.85"/>
<rect x="254" y="182" width="6" height="6" fill="#FF9500" opacity="0.85"/>
<rect x="260" y="182" width="6" height="6" fill="#FF9500" opacity="0.85"/>
<rect x="272" y="182" width="6" height="6" fill="#FF9500" opacity="0.85"/>
<rect x="290" y="182" width="6" height="6" fill="#FFB000" opacity="0.9"/>
<rect x="302" y="182" width="6" height="6" fill="#FFB000" opacity="0.9"/>
<rect x="326" y="182" width="6" height="6" fill="#FFB000" opacity="0.9"/>
<rect x="332" y="182" width="6" height="6" fill="#FFB000" opacity="0.9"/>
<rect x="338" y="182" width="6" height="6" fill="#FFB000" opacity="0.9"/>
<rect x="356" y="182" width="6" height="6" fill="#FFB000" opacity="0.9"/>
<rect x="362" y="182" width="6" height="6" fill="#FFB000" opacity="0.9"/>
<rect x="368" y="182" width="6" height="6" fill="#FF9500" opacity="0.85"/>
<rect x="374" y="182" width="6" height="6" fill="#FF9500" opacity="0.85"/>
<rect x="386" y="182" width="6" height="6" fill="#FF9500" opacity="0.85"/>
<rect x="398" y="182" width="6" height="6" fill="#FF9500" opacity="0.85"/>
<rect x="404" y="182" width="6" height="6" fill="#FF9500" opacity="0.85"/>
<rect x="416" y="182" width="6" height="6" fill="#CC8800" opacity="0.7"/>
<rect x="434" y="182" width="6" height="6" fill="#CC8800" opacity="0.7"/>
<rect x="440" y="182" width="6" height="6" fill="#CC8800" opacity="0.7"/>
<rect x="452" y="182" width="6" height="6" fill="#CC8800" opacity="0.7"/>
<rect x="464" y="182" width="6" height="6" fill="#CC8800" opacity="0.7"/>
<rect x="470" y="182" width="6" height="6" fill="#7A5200" opacity="0.5"/>
<rect x="476" y="182" width="6" height="6" fill="#7A5200" opacity="0.5"/>
<rect x="482" y="182" width="6" height="6" fill="#7A5200" opacity="0.5"/>
<rect x="152" y="188" width="6" height="6" fill="#7A5200" opacity="0.5"/>
<rect x="158" y="188" width="6" height="6" fill="#7A5200" opacity="0.5"/>
<rect x="176" y="188" width="6" height="6" fill="#CC8800" opacity="0.7"/>
<rect x="200" y="188" width="6" height="6" fill="#CC8800" opacity="0.7"/>
<rect x="206" y="188" width="6" height="6" fill="#CC8800" opacity="0.7"/>
<rect x="212" y="188" width="6" height="6" fill="#CC8800" opacity="0.7"/>
<rect x="230" y="188" width="6" height="6" fill="#CC8800" opacity="0.7"/>
<rect x="236" y="188" width="6" height="6" fill="#FF9500" opacity="0.85"/>
<rect x="242" y="188" width="6" height="6" fill="#FF9500" opacity="0.85"/>
<rect x="248" y="188" width="6" height="6" fill="#FF9500" opacity="0.85"/>
<rect x="272" y="188" width="6" height="6" fill="#FF9500" opacity="0.85"/>
<rect x="278" y="188" width="6" height="6" fill="#FFB000" opacity="0.9"/>
<rect x="284" y="188" width="6" height="6" fill="#FFB000" opacity="0.9"/>
<rect x="290" y="188" width="6" height="6" fill="#FFB000" opacity="0.9"/>
<rect x="302" y="188" width="6" height="6" fill="#FFB000" opacity="0.9"/>
<rect x="308" y="188" width="6" height="6" fill="#FFB000" opacity="0.9"/>
<rect x="320" y="188" width="6" height="6" fill="#FFB000" opacity="0.9"/>
<rect x="326" y="188" width="6" height="6" fill="#FFB000" opacity="0.9"/>
<rect x="344" y="188" width="6" height="6" fill="#FFB000" opacity="0.9"/>
<rect x="350" y="188" width="6" height="6" fill="#FFB000" opacity="0.9"/>
<rect x="356" y="188" width="6" height="6" fill="#FFB000" opacity="0.9"/>
<rect x="386" y="188" width="6" height="6" fill="#FF9500" opacity="0.85"/>
<rect x="398" y="188" width="6" height="6" fill="#FF9500" opacity="0.85"/>
<rect x="416" y="188" width="6" height="6" fill="#CC8800" opacity="0.7"/>
<rect x="422" y="188" width="6" height="6" fill="#CC8800" opacity="0.7"/>
<rect x="428" y="188" width="6" height="6" fill="#CC8800" opacity="0.7"/>
<rect x="434" y="188" width="6" height="6" fill="#CC8800" opacity="0.7"/>
<rect x="452" y="188" width="6" height="6" fill="#CC8800" opacity="0.7"/>
<rect x="464" y="188" width="6" height="6" fill="#CC8800" opacity="0.7"/>
<rect x="488" y="188" width="6" height="6" fill="#7A5200" opacity="0.5"/>
<rect x="146" y="194" width="6" height="6" fill="#7A5200" opacity="0.5"/>
<rect x="152" y="194" width="6" height="6" fill="#7A5200" opacity="0.5"/>
<rect x="164" y="194" width="6" height="6" fill="#7A5200" opacity="0.5"/>
<rect x="170" y="194" width="6" height="6" fill="#7A5200" opacity="0.5"/>
<rect x="176" y="194" width="6" height="6" fill="#CC8800" opacity="0.7"/>
<rect x="182" y="194" width="6" height="6" fill="#CC8800" opacity="0.7"/>
<rect x="194" y="194" width="6" height="6" fill="#CC8800" opacity="0.7"/>
<rect x="200" y="194" width="6" height="6" fill="#CC8800" opacity="0.7"/>
<rect x="218" y="194" width="6" height="6" fill="#CC8800" opacity="0.7"/>
<rect x="224" y="194" width="6" height="6" fill="#CC8800" opacity="0.7"/>
<rect x="230" y="194" width="6" height="6" fill="#CC8800" opacity="0.7"/>
<rect x="254" y="194" width="6" height="6" fill="#FF9500" opacity="0.85"/>
<rect x="266" y="194" width="6" height="6" fill="#FF9500" opacity="0.85"/>
<rect x="272" y="194" width="6" height="6" fill="#FF9500" opacity="0.85"/>
<rect x="302" y="194" width="6" height="6" fill="#FFB000" opacity="0.9"/>
<rect x="320" y="194" width="6" height="6" fill="#FFB000" opacity="0.9"/>
<rect x="332" y="194" width="6" height="6" fill="#FFB000" opacity="0.9"/>
<rect x="338" y="194" width="6" height="6" fill="#FFB000" opacity="0.9"/>
<rect x="344" y="194" width="6" height="6" fill="#FFB000" opacity="0.9"/>
<rect x="362" y="194" width="6" height="6" fill="#FFB000" opacity="0.9"/>
<rect x="380" y="194" width="6" height="6" fill="#FF9500" opacity="0.85"/>
<rect x="386" y="194" width="6" height="6" fill="#FF9500" opacity="0.85"/>
<rect x="398" y="194" width="6" height="6" fill="#FF9500" opacity="0.85"/>
<rect x="404" y="194" width="6" height="6" fill="#FF9500" opacity="0.85"/>
<rect x="410" y="194" width="6" height="6" fill="#CC8800" opacity="0.7"/>
<rect x="416" y="194" width="6" height="6" fill="#CC8800" opacity="0.7"/>
<rect x="440" y="194" width="6" height="6" fill="#CC8800" opacity="0.7"/>
<rect x="446" y="194" width="6" height="6" fill="#CC8800" opacity="0.7"/>
<rect x="452" y="194" width="6" height="6" fill="#CC8800" opacity="0.7"/>
<rect x="464" y="194" width="6" height="6" fill="#CC8800" opacity="0.7"/>
<rect x="470" y="194" width="6" height="6" fill="#7A5200" opacity="0.5"/>
<rect x="482" y="194" width="6" height="6" fill="#7A5200" opacity="0.5"/>
<rect x="488" y="194" width="6" height="6" fill="#7A5200" opacity="0.5"/>
<rect x="494" y="194" width="6" height="6" fill="#7A5200" opacity="0.5"/>
<rect x="0" y="0" width="640" height="1" fill="#000000" opacity="0.1"/>
<rect x="0" y="3" width="640" height="1" fill="#000000" opacity="0.1"/>
<rect x="0" y="6" width="640" height="1" fill="#000000" opacity="0.1"/>
<rect x="0" y="9" width="640" height="1" fill="#000000" opacity="0.1"/>
<rect x="0" y="12" width="640" height="1" fill="#000000" opacity="0.1"/>
<rect x="0" y="15" width="640" height="1" fill="#000000" opacity="0.1"/>
<rect x="0" y="18" width="640" height="1" fill="#000000" opacity="0.1"/>
<rect x="0" y="21" width="640" height="1" fill="#000000" opacity="0.1"/>
<rect x="0" y="24" width="640" height="1" fill="#000000" opacity="0.1"/>
<rect x="0" y="27" width="640" height="1" fill="#000000" opacity="0.1"/>
<rect x="0" y="30" width="640" height="1" fill="#000000" opacity="0.1"/>
<rect x="0" y="33" width="640" height="1" fill="#000000" opacity="0.1"/>
<rect x="0" y="36" width="640" height="1" fill="#000000" opacity="0.1"/>
<rect x="0" y="39" width="640" height="1" fill="#000000" opacity="0.1"/>
<rect x="0" y="42" width="640" height="1" fill="#000000" opacity="0.1"/>
<rect x="0" y="45" width="640" height="1" fill="#000000" opacity="0.1"/>
<rect x="0" y="48" width="640" height="1" fill="#000000" opacity="0.1"/>
<rect x="0" y="51" width="640" height="1" fill="#000000" opacity="0.1"/>
<rect x="0" y="54" width="640" height="1" fill="#000000" opacity="0.1"/>
<rect x="0" y="57" width="640" height="1" fill="#000000" opacity="0.1"/>
<rect x="0" y="60" width="640" height="1" fill="#000000" opacity="0.1"/>
<rect x="0" y="63" width="640" height="1" fill="#000000" opacity="0.1"/>
<rect x="0" y="66" width="640" height="1" fill="#000000" opacity="0.1"/>
<rect x="0" y="69" width="640" height="1" fill="#000000" opacity="0.1"/>
<rect x="0" y="72" width="640" height="1" fill="#000000" opacity="0.1"/>
<rect x="0" y="75" width="640" height="1" fill="#000000" opacity="0.1"/>
<rect x="0" y="78" width="640" height="1" fill="#000000" opacity="0.1"/>
<rect x="0" y="81" width="640" height="1" fill="#000000" opacity="0.1"/>
<rect x="0" y="84" width="640" height="1" fill="#000000" opacity="0.1"/>
<rect x="0" y="87" width="640" height="1" fill="#000000" opacity="0.1"/>
<rect x="0" y="90" width="640" height="1" fill="#000000" opacity="0.1"/>
<rect x="0" y="93" width="640" height="1" fill="#000000" opacity="0.1"/>
<rect x="0" y="96" width="640" height="1" fill="#000000" opacity="0.1"/>
<rect x="0" y="99" width="640" height="1" fill="#000000" opacity="0.1"/>
<rect x="0" y="102" width="640" height="1" fill="#000000" opacity="0.1"/>
<rect x="0" y="105" width="640" height="1" fill="#000000" opacity="0.1"/>
<rect x="0" y="108" width="640" height="1" fill="#000000" opacity="0.1"/>
<rect x="0" y="111" width="640" height="1" fill="#000000" opacity="0.1"/>
<rect x="0" y="114" width="640" height="1" fill="#000000" opacity="0.1"/>
<rect x="0" y="117" width="640" height="1" fill="#000000" opacity="0.1"/>
<rect x="0" y="120" width="640" height="1" fill="#000000" opacity="0.1"/>
<rect x="0" y="123" width="640" height="1" fill="#000000" opacity="0.1"/>
<rect x="0" y="126" width="640" height="1" fill="#000000" opacity="0.1"/>
<rect x="0" y="129" width="640" height="1" fill="#000000" opacity="0.1"/>
<rect x="0" y="132" width="640" height="1" fill="#000000" opacity="0.1"/>
<rect x="0" y="135" width="640" height="1" fill="#000000" opacity="0.1"/>
<rect x="0" y="138" width="640" height="1" fill="#000000" opacity="0.1"/>
<rect x="0" y="141" width="640" height="1" fill="#000000" opacity="0.1"/>
<rect x="0" y="144" width="640" height="1" fill="#000000" opacity="0.1"/>
<rect x="0" y="147" width="640" height="1" fill="#000000" opacity="0.1"/>
<rect x="0" y="150" width="640" height="1" fill="#000000" opacity="0.1"/>
<rect x="0" y="153" width="640" height="1" fill="#000000" opacity="0.1"/>
<rect x="0" y="156" width="640" height="1" fill="#000000" opacity="0.1"/>
<rect x="0" y="159" width="640" height="1" fill="#000000" opacity="0.1"/>
<rect x="0" y="162" width="640" height="1" fill="#000000" opacity="0.1"/>
<rect x="0" y="165" width="640" height="1" fill="#000000" opacity="0.1"/>
<rect x="0" y="168" width="640" height="1" fill="#000000" opacity="0.1"/>
<rect x="0" y="171" width="640" height="1" fill="#000000" opacity="0.1"/>
<rect x="0" y="174" width="640" height="1" fill="#000000" opacity="0.1"/>
<rect x="0" y="177" width="640" height="1" fill="#000000" opacity="0.1"/>
<rect x="0" y="180" width="640" height="1" fill="#000000" opacity="0.1"/>
<rect x="0" y="183" width="640" height="1" fill="#000000" opacity="0.1"/>
<rect x="0" y="186" width="640" height="1" fill="#000000" opacity="0.1"/>
<rect x="0" y="189" width="640" height="1" fill="#000000" opacity="0.1"/>
<rect x="0" y="192" width="640" height="1" fill="#000000" opacity="0.1"/>
<rect x="0" y="195" width="640" height="1" fill="#000000" opacity="0.1"/>
<rect x="0" y="198" width="640" height="1" fill="#000000" opacity="0.1"/>
<rect x="0" y="201" width="640" height="1" fill="#000000" opacity="0.1"/>
<rect x="0" y="204" width="640" height="1" fill="#000000" opacity="0.1"/>
<rect x="0" y="207" width="640" height="1" fill="#000000" opacity="0.1"/>
<rect x="0" y="210" width="640" height="1" fill="#000000" opacity="0.1"/>
<rect x="0" y="213" width="640" height="1" fill="#000000" opacity="0.1"/>
<rect x="0" y="216" width="640" height="1" fill="#000000" opacity="0.1"/>
<rect x="0" y="219" width="640" height="1" fill="#000000" opacity="0.1"/>
<rect x="0" y="222" width="640" height="1" fill="#000000" opacity="0.1"/>
<rect x="0" y="225" width="640" height="1" fill="#000000" opacity="0.1"/>
<rect x="0" y="228" width="640" height="1" fill="#000000" opacity="0.1"/>
<rect x="0" y="231" width="640" height="1" fill="#000000" opacity="0.1"/>
<rect x="0" y="234" width="640" height="1" fill="#000000" opacity="0.1"/>
<rect x="0" y="237" width="640" height="1" fill="#000000" opacity="0.1"/>
<rect x="0" y="240" width="640" height="1" fill="#000000" opacity="0.1"/>
<rect x="0" y="243" width="640" height="1" fill="#000000" opacity="0.1"/>
<rect x="0" y="246" width="640" height="1" fill="#000000" opacity="0.1"/>
<rect x="0" y="249" width="640" height="1" fill="#000000" opacity="0.1"/>
<rect x="0" y="252" width="640" height="1" fill="#000000" opacity="0.1"/>
<rect x="0" y="255" width="640" height="1" fill="#000000" opacity="0.1"/>
<rect x="0" y="258" width="640" height="1" fill="#000000" opacity="0.1"/>
<rect x="0" y="261" width="640" height="1" fill="#000000" opacity="0.1"/>
<rect x="0" y="264" width="640" height="1" fill="#000000" opacity="0.1"/>
<rect x="0" y="267" width="640" height="1" fill="#000000" opacity="0.1"/>
<rect x="0" y="270" width="640" height="1" fill="#000000" opacity="0.1"/>
<rect x="0" y="273" width="640" height="1" fill="#000000" opacity="0.1"/>
<rect x="0" y="276" width="640" height="1" fill="#000000" opacity="0.1"/>
<rect x="0" y="279" width="640" height="1" fill="#000000" opacity="0.1"/>
<rect x="0" y="282" width="640" height="1" fill="#000000" opacity="0.1"/>
<rect x="0" y="285" width="640" height="1" fill="#000000" opacity="0.1"/>
<rect x="0" y="288" width="640" height="1" fill="#000000" opacity="0.1"/>
<rect x="0" y="291" width="640" height="1" fill="#000000" opacity="0.1"/>
<rect x="0" y="294" width="640" height="1" fill="#000000" opacity="0.1"/>
<rect x="0" y="297" width="640" height="1" fill="#000000" opacity="0.1"/>
<rect width="640" height="300" fill="url(#vg)"/>
<text x="320" y="245" text-anchor="middle" font-family="Courier New, monospace" font-size="48" font-weight="bold" fill="#FF9500" letter-spacing="8" filter="url(#glow)" opacity="0.5">HDLS</text>
<text x="320" y="245" text-anchor="middle" font-family="Courier New, monospace" font-size="48" font-weight="bold" fill="#FF9500" letter-spacing="8">HDLS</text>
<text x="320" y="267" text-anchor="middle" font-family="Courier New, monospace" font-size="13" fill="#CC8800">signal chain research collective</text>
<text x="22" y="292" font-family="Courier New, monospace" font-size="11" fill="#7A5200">dlorp</text>
</svg>