<?xml version="1.0" encoding="UTF-8"?>
<svg xmlns="http://www.w3.org/2000/svg" viewBox="0 0 1280 320" width="1280" height="320">
<defs>
  <filter id="glow" x="-10%" y="-10%" width="120%" height="120%">
    <feGaussianBlur stdDeviation="1.5" result="blur"/>
    <feMerge><feMergeNode in="blur"/><feMergeNode in="SourceGraphic"/></feMerge>
  </filter>
  <filter id="knotglow" x="-15%" y="-15%" width="130%" height="130%">
    <feGaussianBlur stdDeviation="2" result="blur"/>
    <feMerge><feMergeNode in="blur"/><feMergeNode in="SourceGraphic"/></feMerge>
  </filter>
  <pattern id="scanlines" x="0" y="0" width="4" height="4" patternUnits="userSpaceOnUse">
    <rect x="0" y="2" width="4" height="2" fill="#0E0B02" opacity="0.12"/>
  </pattern>
  <radialGradient id="vignette" cx="50%" cy="50%" r="70%">
    <stop offset="55%" stop-color="#0E0B02" stop-opacity="0"/>
    <stop offset="100%" stop-color="#0E0B02" stop-opacity="0.6"/>
  </radialGradient>
</defs>
<rect x="0" y="0" width="1280" height="320" fill="#0E0B02"/>
<g filter="url(#knotglow)">
<path d="M1109.3,160.0L1110.1,162.0L1110.7,164.0L1111.2,166.0L1111.6,167.9L1111.8,169.9L1111.9,171.8L1111.8,173.6L1111.6,175.5L1111.2,177.3L1110.7,179.0L1110.1,180.7L1109.3,182.3L1108.4,183.9L1107.4,185.4L1106.2,186.9L1105.0,188.3L1103.6,189.6L1102.1,190.8L1100.6,191.9L1098.9,193.0L1097.1,194.0L1095.3,194.9L1093.4,195.7L1091.4,196.5L1089.3,197.2L1087.2,197.8L1085.1,198.3L1082.9,198.8L1080.6,199.1L1078.4,199.4L1076.1,199.7L1073.8,199.9L1071.4,200.0L1069.1,200.0L1066.8,200.0L1064.4,200.0L1062.1,199.9L1059.8,199.8L1057.5,199.6L1055.3,199.4L1053.0,199.2L1050.8,198.9L1048.6,198.6L1046.4,198.3L1044.3,198.0L1042.2,197.7L1040.1,197.4L1038.1,197.1L1036.1,196.8L1034.2,196.5L1032.3,196.2L1030.4,195.9L1028.5,195.6L1026.7,195.4L1024.9,195.1L1023.2,194.9L1021.4,194.7L1019.7,194.5L1018.1,194.3L1016.4,194.2L1014.7,194.1L1013.1,194.0L1011.5,193.9L1009.8,193.8L1008.2,193.8L1006.6,193.8L1005.0,193.7L1003.4,193.7L1001.7,193.7L1000.1,193.7L998.4,193.7L996.8,193.7L995.1,193.6L993.4,193.6L991.7,193.5L989.9,193.4L988.2,193.3L986.4,193.1L984.6,192.9L982.8,192.7L981.0,192.4L979.1,192.0L977.3,191.6L975.4,191.2L973.5,190.6L971.6,190.0L969.7,189.4L967.9,188.6L966.0,187.8L964.1,186.8L962.2,185.8L960.4,184.7L960.2,184.6" fill="none" stroke="#3d2400" stroke-width="6" stroke-linecap="round" opacity="0.5"/>
<path d="M960.1,184.5L956.7,182.2L955.0,180.8L953.2,179.4L951.5,177.8L949.9,176.1L948.3,174.4L946.8,172.5L945.4,170.5L944.0,168.5L942.7,166.4L941.5,164.2L940.4,161.9L939.4,159.5L938.5,157.1L937.7,154.6L937.0,152.0L936.4,149.4L936.0,146.7L935.6,144.0L935.4,141.2L935.4,138.4L935.5,135.6L935.7,132.8L936.1,129.9L936.6,127.1L937.2,124.2L938.0,121.4L938.9,118.6L940.0,115.8L941.2,113.1L942.6,110.4L944.0,107.8L945.7,105.2L947.4,102.7L949.3,100.2L951.3,97.9L953.4,95.6L955.7,93.4L958.0,91.4L960.5,89.4L963.0,87.5L965.6,85.8L968.3,84.1L971.1,82.6L974.0,81.3L976.9,80.0L979.8,78.9L982.8,77.9L985.8,77.1L988.9,76.4L991.9,75.8L995.0,75.4L998.1,75.1L1001.2,74.9L1004.2,74.9L1007.2,75.0L1010.2,75.2L1013.2,75.6L1016.1,76.1L1019.0,76.7L1021.8,77.4L1024.5,78.3L1027.2,79.3L1029.7,80.3L1032.2,81.5L1034.6,82.7L1037.0,84.1L1039.2,85.5L1041.3,87.0L1043.4,88.6L1045.3,90.3L1047.1,92.0L1048.8,93.8L1050.5,95.6L1052.0,97.5L1053.4,99.4L1054.7,101.3L1055.9,103.3L1057.0,105.3L1058.0,107.4L1058.9,109.4L1059.7,111.4L1060.4,113.5L1061.0,115.6L1061.6,117.6L1062.1,119.7L1062.5,121.7L1062.8,123.8L1063.1,125.8L1063.3,127.8L1063.4,129.8L1063.5,131.8L1063.6,133.8L1063.6,135.8L1063.6,137.7L1063.6,139.6L1063.5,141.6L1063.4,143.4L1063.3,145.3L1063.2,147.2L1063.0,149.0L1062.9,150.9L1062.8,152.7L1062.6,154.6L1062.5,156.4L1062.4,158.2L1062.3,160.0L1062.2,161.8L1062.1,163.6L1062.0,165.4L1062.0,167.3L1061.9,169.1L1061.9,171.0L1061.8,172.8L1061.8,174.7L1061.8,176.6L1061.8,178.4L1061.8,180.4L1061.8,182.3L1061.8,184.2L1061.8,186.2L1061.8,188.2L1061.8,190.2L1061.8,192.2L1061.8,194.2L1061.7,196.2L1061.6,198.3L1061.5,199.8" fill="none" stroke="#3d2400" stroke-width="6" stroke-linecap="round" opacity="0.5"/>
<path d="M1061.5,199.9L1061.3,202.4L1061.1,204.4L1060.9,206.5L1060.6,208.6L1060.3,210.6L1059.9,212.6L1059.4,214.7L1058.9,216.7L1058.3,218.7L1057.7,220.6L1056.9,222.5L1056.1,224.4L1055.3,226.2L1054.3,228.0L1053.2,229.7L1052.1,231.4L1050.9,233.0L1049.6,234.5L1048.2,235.9L1046.7,237.3L1045.1,238.5L1043.5,239.7L1041.7,240.7L1039.9,241.7L1038.0,242.6L1036.1,243.3L1034.0,243.9L1031.9,244.4L1029.8,244.8L1027.5,245.0L1025.2,245.1L1022.9,245.1L1020.5,244.9L1018.1,244.6L1015.7,244.2L1013.2,243.6L1010.7,242.9L1008.2,242.1L1005.7,241.1L1003.2,240.0L1000.7,238.7L998.3,237.4L995.8,235.9L993.4,234.2L991.0,232.5L988.7,230.6L986.4,228.6L984.1,226.6L982.0,224.4L979.9,222.1L977.8,219.8L975.9,217.3L974.0,214.8L972.2,212.2L970.5,209.6L969.0,206.9L967.5,204.2L966.1,201.4L964.8,198.6L963.7,195.8L962.6,192.9L961.7,190.1L960.8,187.2L960.1,184.4L959.5,181.6L959.0,178.8L958.6,176.0L958.4,173.3L958.2,170.6L958.1,168.0L958.2,165.4L958.3,162.9L958.5,160.5L958.8,158.1L959.2,155.8L959.7,153.6L960.3,151.5L960.9,149.5L961.6,147.5L962.4,145.6L963.2,143.9L964.1,142.2L965.0,140.6L965.9,139.2L966.9,137.8L967.9,136.5L969.0,135.3L970.0,134.2L971.1,133.2L972.2,132.2L973.2,131.4L974.3,130.6L975.4,130.0L976.4,129.4L977.5,128.8L978.5,128.4L979.5,128.0L980.5,127.6L981.5,127.3L982.5,127.1L983.4,126.9L984.3,126.7L985.2,126.6L986.0,126.5L986.8,126.4L987.6,126.4L988.4,126.3L989.1,126.3L989.9,126.3L990.6,126.3L991.3,126.3L992.0,126.3L992.6,126.2L993.3,126.2L994.0,126.2L994.7,126.1L995.4,126.0L996.1,125.9L996.8,125.8L997.5,125.7L998.3,125.5L999.1,125.3L999.9,125.1L1000.8,124.9L1001.7,124.6L1002.6,124.4L1003.6,124.1L1004.7,123.8L1005.8,123.5L1007.0,123.2L1008.3,122.9L1009.6,122.6L1011.0,122.3L1012.4,122.0L1014.0,121.7L1015.6,121.4L1017.3,121.1L1019.1,120.8L1020.9,120.6L1022.8,120.4L1024.8,120.2L1026.9,120.1L1029.1,120.0L1031.3,120.0L1033.6,120.0L1035.9,120.0L1038.3,120.1L1040.8,120.3L1043.3,120.6L1045.8,120.9L1048.4,121.2L1051.1,121.7L1053.7,122.2L1056.4,122.8L1059.1,123.5L1061.8,124.3L1062.8,124.6" fill="none" stroke="#3d2400" stroke-width="6" stroke-linecap="round" opacity="0.5"/>
<path d="M1063.0,124.6L1067.2,126.0L1069.9,127.0L1072.5,128.1L1075.2,129.2L1077.8,130.4L1080.3,131.7L1082.8,133.1L1085.2,134.6L1087.6,136.1L1089.9,137.7L1092.1,139.3L1094.2,141.0L1096.3,142.7L1098.2,144.5L1100.0,146.4L1101.7,148.2L1103.3,150.1L1104.7,152.1L1106.1,154.0L1107.3,156.0L1108.3,158.0L1109.3,160.0" fill="none" stroke="#3d2400" stroke-width="6" stroke-linecap="round" opacity="0.5"/>
<path d="M1109.3,160.0L1110.1,162.0L1110.7,164.0L1111.2,166.0L1111.6,167.9L1111.8,169.9L1111.9,171.8L1111.8,173.6L1111.6,175.5L1111.2,177.3L1110.7,179.0L1110.1,180.7L1109.3,182.3L1108.4,183.9L1107.4,185.4L1106.2,186.9L1105.0,188.3L1103.6,189.6L1102.1,190.8L1100.6,191.9L1098.9,193.0L1097.1,194.0L1095.3,194.9L1093.4,195.7L1091.4,196.5L1089.3,197.2L1087.2,197.8L1085.1,198.3L1082.9,198.8L1080.6,199.1L1078.4,199.4L1076.1,199.7L1073.8,199.9L1071.4,200.0L1069.1,200.0L1066.8,200.0L1064.4,200.0L1062.1,199.9L1059.8,199.8L1057.5,199.6L1055.3,199.4L1053.0,199.2L1050.8,198.9L1048.6,198.6L1046.4,198.3L1044.3,198.0L1042.2,197.7L1040.1,197.4L1038.1,197.1L1036.1,196.8L1034.2,196.5L1032.3,196.2L1030.4,195.9L1028.5,195.6L1026.7,195.4L1024.9,195.1L1023.2,194.9L1021.4,194.7L1019.7,194.5L1018.1,194.3L1016.4,194.2L1014.7,194.1L1013.1,194.0L1011.5,193.9L1009.8,193.8L1008.2,193.8L1006.6,193.8L1005.0,193.7L1003.4,193.7L1001.7,193.7L1000.1,193.7L998.4,193.7L996.8,193.7L995.1,193.6L993.4,193.6L991.7,193.5L989.9,193.4L988.2,193.3L986.4,193.1L984.6,192.9L982.8,192.7L981.0,192.4L979.1,192.0L977.3,191.6L975.4,191.2L973.5,190.6L971.6,190.0L969.7,189.4L967.9,188.6L966.0,187.8L964.1,186.8L962.2,185.8L960.4,184.7L960.2,184.6" fill="none" stroke="#C47A00" stroke-width="2.5" stroke-linecap="round" opacity="0.95"/>
<path d="M960.1,184.5L956.7,182.2L955.0,180.8L953.2,179.4L951.5,177.8L949.9,176.1L948.3,174.4L946.8,172.5L945.4,170.5L944.0,168.5L942.7,166.4L941.5,164.2L940.4,161.9L939.4,159.5L938.5,157.1L937.7,154.6L937.0,152.0L936.4,149.4L936.0,146.7L935.6,144.0L935.4,141.2L935.4,138.4L935.5,135.6L935.7,132.8L936.1,129.9L936.6,127.1L937.2,124.2L938.0,121.4L938.9,118.6L940.0,115.8L941.2,113.1L942.6,110.4L944.0,107.8L945.7,105.2L947.4,102.7L949.3,100.2L951.3,97.9L953.4,95.6L955.7,93.4L958.0,91.4L960.5,89.4L963.0,87.5L965.6,85.8L968.3,84.1L971.1,82.6L974.0,81.3L976.9,80.0L979.8,78.9L982.8,77.9L985.8,77.1L988.9,76.4L991.9,75.8L995.0,75.4L998.1,75.1L1001.2,74.9L1004.2,74.9L1007.2,75.0L1010.2,75.2L1013.2,75.6L1016.1,76.1L1019.0,76.7L1021.8,77.4L1024.5,78.3L1027.2,79.3L1029.7,80.3L1032.2,81.5L1034.6,82.7L1037.0,84.1L1039.2,85.5L1041.3,87.0L1043.4,88.6L1045.3,90.3L1047.1,92.0L1048.8,93.8L1050.5,95.6L1052.0,97.5L1053.4,99.4L1054.7,101.3L1055.9,103.3L1057.0,105.3L1058.0,107.4L1058.9,109.4L1059.7,111.4L1060.4,113.5L1061.0,115.6L1061.6,117.6L1062.1,119.7L1062.5,121.7L1062.8,123.8L1063.1,125.8L1063.3,127.8L1063.4,129.8L1063.5,131.8L1063.6,133.8L1063.6,135.8L1063.6,137.7L1063.6,139.6L1063.5,141.6L1063.4,143.4L1063.3,145.3L1063.2,147.2L1063.0,149.0L1062.9,150.9L1062.8,152.7L1062.6,154.6L1062.5,156.4L1062.4,158.2L1062.3,160.0L1062.2,161.8L1062.1,163.6L1062.0,165.4L1062.0,167.3L1061.9,169.1L1061.9,171.0L1061.8,172.8L1061.8,174.7L1061.8,176.6L1061.8,178.4L1061.8,180.4L1061.8,182.3L1061.8,184.2L1061.8,186.2L1061.8,188.2L1061.8,190.2L1061.8,192.2L1061.8,194.2L1061.7,196.2L1061.6,198.3L1061.5,199.8" fill="none" stroke="#C47A00" stroke-width="2.5" stroke-linecap="round" opacity="0.95"/>
<path d="M1061.5,199.9L1061.3,202.4L1061.1,204.4L1060.9,206.5L1060.6,208.6L1060.3,210.6L1059.9,212.6L1059.4,214.7L1058.9,216.7L1058.3,218.7L1057.7,220.6L1056.9,222.5L1056.1,224.4L1055.3,226.2L1054.3,228.0L1053.2,229.7L1052.1,231.4L1050.9,233.0L1049.6,234.5L1048.2,235.9L1046.7,237.3L1045.1,238.5L1043.5,239.7L1041.7,240.7L1039.9,241.7L1038.0,242.6L1036.1,243.3L1034.0,243.9L1031.9,244.4L1029.8,244.8L1027.5,245.0L1025.2,245.1L1022.9,245.1L1020.5,244.9L1018.1,244.6L1015.7,244.2L1013.2,243.6L1010.7,242.9L1008.2,242.1L1005.7,241.1L1003.2,240.0L1000.7,238.7L998.3,237.4L995.8,235.9L993.4,234.2L991.0,232.5L988.7,230.6L986.4,228.6L984.1,226.6L982.0,224.4L979.9,222.1L977.8,219.8L975.9,217.3L974.0,214.8L972.2,212.2L970.5,209.6L969.0,206.9L967.5,204.2L966.1,201.4L964.8,198.6L963.7,195.8L962.6,192.9L961.7,190.1L960.8,187.2L960.1,184.4L959.5,181.6L959.0,178.8L958.6,176.0L958.4,173.3L958.2,170.6L958.1,168.0L958.2,165.4L958.3,162.9L958.5,160.5L958.8,158.1L959.2,155.8L959.7,153.6L960.3,151.5L960.9,149.5L961.6,147.5L962.4,145.6L963.2,143.9L964.1,142.2L965.0,140.6L965.9,139.2L966.9,137.8L967.9,136.5L969.0,135.3L970.0,134.2L971.1,133.2L972.2,132.2L973.2,131.4L974.3,130.6L975.4,130.0L976.4,129.4L977.5,128.8L978.5,128.4L979.5,128.0L980.5,127.6L981.5,127.3L982.5,127.1L983.4,126.9L984.3,126.7L985.2,126.6L986.0,126.5L986.8,126.4L987.6,126.4L988.4,126.3L989.1,126.3L989.9,126.3L990.6,126.3L991.3,126.3L992.0,126.3L992.6,126.2L993.3,126.2L994.0,126.2L994.7,126.1L995.4,126.0L996.1,125.9L996.8,125.8L997.5,125.7L998.3,125.5L999.1,125.3L999.9,125.1L1000.8,124.9L1001.7,124.6L1002.6,124.4L1003.6,124.1L1004.7,123.8L1005.8,123.5L1007.0,123.2L1008.3,122.9L1009.6,122.6L1011.0,122.3L1012.4,122.0L1014.0,121.7L1015.6,121.4L1017.3,121.1L1019.1,120.8L1020.9,120.6L1022.8,120.4L1024.8,120.2L1026.9,120.1L1029.1,120.0L1031.3,120.0L1033.6,120.0L1035.9,120.0L1038.3,120.1L1040.8,120.3L1043.3,120.6L1045.8,120.9L1048.4,121.2L1051.1,121.7L1053.7,122.2L1056.4,122.8L1059.1,123.5L1061.8,124.3L1062.8,124.6" fill="none" stroke="#C47A00" stroke-width="2.5" stroke-linecap="round" opacity="0.95"/>
<path d="M1063.0,124.6L1067.2,126.0L1069.9,127.0L1072.5,128.1L1075.2,129.2L1077.8,130.4L1080.3,131.7L1082.8,133.1L1085.2,134.6L1087.6,136.1L1089.9,137.7L1092.1,139.3L1094.2,141.0L1096.3,142.7L1098.2,144.5L1100.0,146.4L1101.7,148.2L1103.3,150.1L1104.7,152.1L1106.1,154.0L1107.3,156.0L1108.3,158.0L1109.3,160.0" fill="none" stroke="#C47A00" stroke-width="2.5" stroke-linecap="round" opacity="0.95"/>
<path d="M1109.3,160.0L1110.1,162.0L1110.7,164.0L1111.2,166.0L1111.6,167.9L1111.8,169.9L1111.9,171.8L1111.8,173.6L1111.6,175.5L1111.2,177.3L1110.7,179.0L1110.1,180.7L1109.3,182.3L1108.4,183.9L1107.4,185.4L1106.2,186.9L1105.0,188.3L1103.6,189.6L1102.1,190.8L1100.6,191.9L1098.9,193.0L1097.1,194.0L1095.3,194.9L1093.4,195.7L1091.4,196.5L1089.3,197.2L1087.2,197.8L1085.1,198.3L1082.9,198.8L1080.6,199.1L1078.4,199.4L1076.1,199.7L1073.8,199.9L1071.4,200.0L1069.1,200.0L1066.8,200.0L1064.4,200.0L1062.1,199.9L1059.8,199.8L1057.5,199.6L1055.3,199.4L1053.0,199.2L1050.8,198.9L1048.6,198.6L1046.4,198.3L1044.3,198.0L1042.2,197.7L1040.1,197.4L1038.1,197.1L1036.1,196.8L1034.2,196.5L1032.3,196.2L1030.4,195.9L1028.5,195.6L1026.7,195.4L1024.9,195.1L1023.2,194.9L1021.4,194.7L1019.7,194.5L1018.1,194.3L1016.4,194.2L1014.7,194.1L1013.1,194.0L1011.5,193.9L1009.8,193.8L1008.2,193.8L1006.6,193.8L1005.0,193.7L1003.4,193.7L1001.7,193.7L1000.1,193.7L998.4,193.7L996.8,193.7L995.1,193.6L993.4,193.6L991.7,193.5L989.9,193.4L988.2,193.3L986.4,193.1L984.6,192.9L982.8,192.7L981.0,192.4L979.1,192.0L977.3,191.6L975.4,191.2L973.5,190.6L971.6,190.0L969.7,189.4L967.9,188.6L966.0,187.8L964.1,186.8L962.2,185.8L960.4,184.7L960.2,184.6" fill="none" stroke="#FFB800" stroke-width="0.8" stroke-linecap="round" opacity="0.45"/>
<path d="M960.1,184.5L956.7,182.2L955.0,180.8L953.2,179.4L951.5,177.8L949.9,176.1L948.3,174.4L946.8,172.5L945.4,170.5L944.0,168.5L942.7,166.4L941.5,164.2L940.4,161.9L939.4,159.5L938.5,157.1L937.7,154.6L937.0,152.0L936.4,149.4L936.0,146.7L935.6,144.0L935.4,141.2L935.4,138.4L935.5,135.6L935.7,132.8L936.1,129.9L936.6,127.1L937.2,124.2L938.0,121.4L938.9,118.6L940.0,115.8L941.2,113.1L942.6,110.4L944.0,107.8L945.7,105.2L947.4,102.7L949.3,100.2L951.3,97.9L953.4,95.6L955.7,93.4L958.0,91.4L960.5,89.4L963.0,87.5L965.6,85.8L968.3,84.1L971.1,82.6L974.0,81.3L976.9,80.0L979.8,78.9L982.8,77.9L985.8,77.1L988.9,76.4L991.9,75.8L995.0,75.4L998.1,75.1L1001.2,74.9L1004.2,74.9L1007.2,75.0L1010.2,75.2L1013.2,75.6L1016.1,76.1L1019.0,76.7L1021.8,77.4L1024.5,78.3L1027.2,79.3L1029.7,80.3L1032.2,81.5L1034.6,82.7L1037.0,84.1L1039.2,85.5L1041.3,87.0L1043.4,88.6L1045.3,90.3L1047.1,92.0L1048.8,93.8L1050.5,95.6L1052.0,97.5L1053.4,99.4L1054.7,101.3L1055.9,103.3L1057.0,105.3L1058.0,107.4L1058.9,109.4L1059.7,111.4L1060.4,113.5L1061.0,115.6L1061.6,117.6L1062.1,119.7L1062.5,121.7L1062.8,123.8L1063.1,125.8L1063.3,127.8L1063.4,129.8L1063.5,131.8L1063.6,133.8L1063.6,135.8L1063.6,137.7L1063.6,139.6L1063.5,141.6L1063.4,143.4L1063.3,145.3L1063.2,147.2L1063.0,149.0L1062.9,150.9L1062.8,152.7L1062.6,154.6L1062.5,156.4L1062.4,158.2L1062.3,160.0L1062.2,161.8L1062.1,163.6L1062.0,165.4L1062.0,167.3L1061.9,169.1L1061.9,171.0L1061.8,172.8L1061.8,174.7L1061.8,176.6L1061.8,178.4L1061.8,180.4L1061.8,182.3L1061.8,184.2L1061.8,186.2L1061.8,188.2L1061.8,190.2L1061.8,192.2L1061.8,194.2L1061.7,196.2L1061.6,198.3L1061.5,199.8" fill="none" stroke="#FFB800" stroke-width="0.8" stroke-linecap="round" opacity="0.45"/>
<path d="M1061.5,199.9L1061.3,202.4L1061.1,204.4L1060.9,206.5L1060.6,208.6L1060.3,210.6L1059.9,212.6L1059.4,214.7L1058.9,216.7L1058.3,218.7L1057.7,220.6L1056.9,222.5L1056.1,224.4L1055.3,226.2L1054.3,228.0L1053.2,229.7L1052.1,231.4L1050.9,233.0L1049.6,234.5L1048.2,235.9L1046.7,237.3L1045.1,238.5L1043.5,239.7L1041.7,240.7L1039.9,241.7L1038.0,242.6L1036.1,243.3L1034.0,243.9L1031.9,244.4L1029.8,244.8L1027.5,245.0L1025.2,245.1L1022.9,245.1L1020.5,244.9L1018.1,244.6L1015.7,244.2L1013.2,243.6L1010.7,242.9L1008.2,242.1L1005.7,241.1L1003.2,240.0L1000.7,238.7L998.3,237.4L995.8,235.9L993.4,234.2L991.0,232.5L988.7,230.6L986.4,228.6L984.1,226.6L982.0,224.4L979.9,222.1L977.8,219.8L975.9,217.3L974.0,214.8L972.2,212.2L970.5,209.6L969.0,206.9L967.5,204.2L966.1,201.4L964.8,198.6L963.7,195.8L962.6,192.9L961.7,190.1L960.8,187.2L960.1,184.4L959.5,181.6L959.0,178.8L958.6,176.0L958.4,173.3L958.2,170.6L958.1,168.0L958.2,165.4L958.3,162.9L958.5,160.5L958.8,158.1L959.2,155.8L959.7,153.6L960.3,151.5L960.9,149.5L961.6,147.5L962.4,145.6L963.2,143.9L964.1,142.2L965.0,140.6L965.9,139.2L966.9,137.8L967.9,136.5L969.0,135.3L970.0,134.2L971.1,133.2L972.2,132.2L973.2,131.4L974.3,130.6L975.4,130.0L976.4,129.4L977.5,128.8L978.5,128.4L979.5,128.0L980.5,127.6L981.5,127.3L982.5,127.1L983.4,126.9L984.3,126.7L985.2,126.6L986.0,126.5L986.8,126.4L987.6,126.4L988.4,126.3L989.1,126.3L989.9,126.3L990.6,126.3L991.3,126.3L992.0,126.3L992.6,126.2L993.3,126.2L994.0,126.2L994.7,126.1L995.4,126.0L996.1,125.9L996.8,125.8L997.5,125.7L998.3,125.5L999.1,125.3L999.9,125.1L1000.8,124.9L1001.7,124.6L1002.6,124.4L1003.6,124.1L1004.7,123.8L1005.8,123.5L1007.0,123.2L1008.3,122.9L1009.6,122.6L1011.0,122.3L1012.4,122.0L1014.0,121.7L1015.6,121.4L1017.3,121.1L1019.1,120.8L1020.9,120.6L1022.8,120.4L1024.8,120.2L1026.9,120.1L1029.1,120.0L1031.3,120.0L1033.6,120.0L1035.9,120.0L1038.3,120.1L1040.8,120.3L1043.3,120.6L1045.8,120.9L1048.4,121.2L1051.1,121.7L1053.7,122.2L1056.4,122.8L1059.1,123.5L1061.8,124.3L1062.8,124.6" fill="none" stroke="#FFB800" stroke-width="0.8" stroke-linecap="round" opacity="0.45"/>
<path d="M1063.0,124.6L1067.2,126.0L1069.9,127.0L1072.5,128.1L1075.2,129.2L1077.8,130.4L1080.3,131.7L1082.8,133.1L1085.2,134.6L1087.6,136.1L1089.9,137.7L1092.1,139.3L1094.2,141.0L1096.3,142.7L1098.2,144.5L1100.0,146.4L1101.7,148.2L1103.3,150.1L1104.7,152.1L1106.1,154.0L1107.3,156.0L1108.3,158.0L1109.3,160.0" fill="none" stroke="#FFB800" stroke-width="0.8" stroke-linecap="round" opacity="0.45"/>
</g>
<g transform="translate(80.0,195.0) scale(0.2750,-0.2750)"><path d="M364 440Q364 417 360 400Q364 384 364 360Q364 337 360 320Q364 304 364 280Q364 257 360 240Q364 224 364 200Q364 177 360 160Q364 144 364 120Q364 97 360 80Q364 64 364 40Q364 17 360 0H280Q276 17 276 40Q276 64 280 80Q276 97 276 120Q276 144 280 160Q276 177 276 200Q276 224 280 240H120Q124 224 124 200Q124 177 120 160Q124 144 124 120Q124 97 120 80Q124 64 124 40Q124 17 120 0H40Q36 17 36 40Q36 64 40 80Q36 97 36 120Q36 144 40 160Q36 177 36 200Q36 224 40 240Q36 257 36 280Q36 304 40 320Q36 337 36 360Q36 384 40 400Q36 417 36 440Q36 464 40 480Q36 497 36 520Q36 544 40 560H120Q124 544 124 520Q124 497 120 480Q124 464 124 440Q124 417 120 400Q124 384 124 360Q124 337 120 320H280Q276 337 276 360Q276 384 280 400Q276 417 276 440Q276 464 280 480Q276 497 276 520Q276 544 280 560H360Q364 544 364 520Q364 497 360 480Q364 464 364 440Z" fill="#FFB800"/></g>
  <g transform="translate(193.3,195.0) scale(0.2750,-0.2750)"><path d="M364 280Q364 257 360 240Q364 224 364 200Q364 177 360 160H320Q324 144 324 120Q324 97 320 80H280Q284 64 284 40Q284 17 280 0H40Q36 17 36 40Q36 64 40 80Q36 97 36 120Q36 144 40 160Q36 177 36 200Q36 224 40 240Q36 257 36 280Q36 304 40 320Q36 337 36 360Q36 384 40 400Q36 417 36 440Q36 464 40 480Q36 497 36 520Q36 544 40 560H280Q284 544 284 520Q284 497 280 480H320Q324 464 324 440Q324 417 320 400H360Q364 384 364 360Q364 337 360 320Q364 304 364 280ZM276 200Q276 224 280 240Q276 257 276 280Q276 304 280 320Q276 337 276 360Q276 384 280 400H240Q236 417 236 440Q236 464 240 480H120Q124 464 124 440Q124 417 120 400Q124 384 124 360Q124 337 120 320Q124 304 124 280Q124 257 120 240Q124 224 124 200Q124 177 120 160Q124 144 124 120Q124 97 120 80H240Q236 97 236 120Q236 144 240 160H280Q276 177 276 200Z" fill="#FFB800"/></g>
  <g transform="translate(306.6,195.0) scale(0.2750,-0.2750)"><path d="M364 40Q364 17 360 0H80Q76 17 76 40Q76 64 80 80Q76 97 76 120Q76 144 80 160Q76 177 76 200Q76 224 80 240Q76 257 76 280Q76 304 80 320Q76 337 76 360Q76 384 80 400Q76 417 76 440Q76 464 80 480Q76 497 76 520Q76 544 80 560H160Q164 544 164 520Q164 497 160 480Q164 464 164 440Q164 417 160 400Q164 384 164 360Q164 337 160 320Q164 304 164 280Q164 257 160 240Q164 224 164 200Q164 177 160 160Q164 144 164 120Q164 97 160 80H360Q364 64 364 40Z" fill="#FFB800"/></g>
  <g transform="translate(419.9,195.0) scale(0.2750,-0.2750)"><path d="M364 200Q364 177 360 160Q364 144 364 120Q364 97 360 80H320Q324 64 324 40Q324 17 320 0H80Q76 17 76 40Q76 64 80 80H40Q36 97 36 120Q36 144 40 160H120Q124 144 124 120Q124 97 120 80H280Q276 97 276 120Q276 144 280 160Q276 177 276 200Q276 224 280 240H80Q76 257 76 280Q76 304 80 320H40Q36 337 36 360Q36 384 40 400Q36 417 36 440Q36 464 40 480H80Q76 497 76 520Q76 544 80 560H320Q324 544 324 520Q324 497 320 480H360Q364 464 364 440Q364 417 360 400H280Q276 417 276 440Q276 464 280 480H120Q124 464 124 440Q124 417 120 400Q124 384 124 360Q124 337 120 320H320Q324 304 324 280Q324 257 320 240H360Q364 224 364 200Z" fill="#FFB800"/></g>
<text x="84" y="212"
      font-family="'Courier New', monospace"
      font-size="14"
      fill="#CC8800" letter-spacing="3" opacity="0.85">METRICS // SIGNAL CHAIN</text>
<line x1="80" y1="228" x2="480" y2="228" stroke="#C47A00" stroke-width="0.5" opacity="0.35"/>
<text x="80" y="248"
      font-family="'Courier New', monospace"
      font-size="10" fill="#7A5200" letter-spacing="1" opacity="0.5">// trefoil_knot // parametric // wave_deform</text>
<text x="80" y="264"
      font-family="'Courier New', monospace"
      font-size="10" fill="#7A5200" letter-spacing="1" opacity="0.4">/// distribute_impurity_evenly</text>
<polyline points="10,10 10,24 24,10" fill="none" stroke="#7A5200" stroke-width="0.8" opacity="0.5"/>
<polyline points="1270,10 1270,24 1256,10" fill="none" stroke="#7A5200" stroke-width="0.8" opacity="0.5"/>
<polyline points="10,310 10,296 24,310" fill="none" stroke="#7A5200" stroke-width="0.8" opacity="0.5"/>
<polyline points="1270,310 1270,296 1256,310" fill="none" stroke="#7A5200" stroke-width="0.8" opacity="0.5"/>
<text x="1260" y="302"
      font-family="'Courier New', monospace"
      font-size="9" fill="#7A5200" text-anchor="end" opacity="0.5">1280x320 // TREFOIL // v3</text>
<rect x="0" y="0" width="1280" height="320" fill="url(#scanlines)"/>
<rect x="0" y="0" width="1280" height="320" fill="url(#vignette)"/>
</svg>