<?xml version="1.0" encoding="UTF-8"?>
<svg xmlns="http://www.w3.org/2000/svg" viewBox="0 0 1280 320" width="1280" height="320">
<defs>
  <filter id="knotglow" x="-15%" y="-15%" width="130%" height="130%">
    <feGaussianBlur stdDeviation="2" result="blur"/>
    <feMerge><feMergeNode in="blur"/><feMergeNode in="SourceGraphic"/></feMerge>
  </filter>
  <filter id="glow" x="-10%" y="-10%" width="120%" height="120%">
    <feGaussianBlur stdDeviation="1.5" result="blur"/>
    <feMerge><feMergeNode in="blur"/><feMergeNode in="SourceGraphic"/></feMerge>
  </filter>
  <pattern id="scanlines" x="0" y="0" width="4" height="4" patternUnits="userSpaceOnUse">
    <rect x="0" y="2" width="4" height="2" fill="#000" opacity="0.12"/>
  </pattern>
  <radialGradient id="vignette" cx="50%" cy="50%" r="70%">
    <stop offset="55%" stop-color="#000" stop-opacity="0"/>
    <stop offset="100%" stop-color="#000" stop-opacity="0.6"/>
  </radialGradient>
</defs>
<rect x="0" y="0" width="1280" height="320" fill="#0E0B02"/>
<g filter="url(#knotglow)">
<path d="M1126.1,171.8L1128.2,174.9L1129.1,177.5L1128.7,179.5L1128.3,181.3L1128.3,182.9L1128.5,184.3L1128.1,187.1L1127.0,190.6L1125.9,194.6L1125.2,198.2L1125.2,201.3L1125.3,204.2L1124.8,206.2L1122.6,208.0L1120.9,211.6L1119.0,214.1L1116.4,216.0L1113.5,217.6L1110.3,218.7L1107.6,219.7L1102.7,220.4L1098.6,221.7L1095.5,221.8L1092.4,222.6L1089.3,222.5L1086.5,222.3L1083.5,222.8L1081.0,221.8L1078.7,221.7L1076.1,222.0L1073.0,222.2L1070.1,221.9L1067.3,221.5L1064.0,220.7L1060.8,219.1L1055.8,215.1L1051.5,216.8L1048.1,217.6L1045.0,216.0L1043.2,213.4L1042.1,211.3L1039.6,209.8L1036.9,208.7L1034.1,207.5L1031.5,206.7L1028.9,206.4L1026.3,206.2L1024.0,206.0L1021.9,206.0L1020.0,206.1L1018.2,206.2L1016.6,206.3L1015.2,206.5L1013.8,206.7L1012.3,206.8L1010.7,206.7L1008.9,206.6L1006.6,206.5L1004.1,206.5L1001.8,206.7L1000.1,207.1L998.6,207.5L996.5,207.8L994.4,207.2L992.2,205.9L989.8,204.7L987.5,203.9L985.0,202.9L982.6,201.7L982.5,201.6" fill="none" stroke="#3d2400" stroke-width="6" stroke-linecap="round" opacity="0.5"/>
<path d="M982.4,201.6L976.6,198.7L972.4,194.1L967.9,190.4L965.8,188.5L961.9,187.2L960.7,180.3L958.4,175.5L958.5,172.2L958.3,168.8L958.0,166.3L957.2,163.5L956.0,159.6L954.3,156.4L953.6,152.9L953.7,149.5L953.4,146.4L953.8,142.4L954.2,138.9L952.9,136.5L952.8,133.7L954.5,129.9L956.4,126.3L958.5,123.0L960.8,119.9L961.9,117.1L964.4,112.6L969.1,107.7L972.8,104.0L976.5,99.9L980.0,97.4L982.2,96.1L984.9,96.1L985.7,94.3L987.9,94.8L993.7,96.1L996.8,97.4L1002.7,96.2L1009.1,94.1L1014.0,91.8L1018.3,91.9L1022.3,92.6L1025.9,91.9L1030.2,93.9L1035.3,97.7L1039.1,98.9L1042.0,100.2L1043.8,101.5L1048.2,104.3L1054.5,107.3L1061.1,109.2L1064.2,111.8L1066.8,114.8L1069.4,117.5L1071.6,119.9L1071.9,121.4L1073.4,123.1L1076.1,124.1L1078.2,127.0L1076.7,129.4L1075.9,130.5L1076.6,132.2L1077.3,134.1L1078.1,136.7L1080.0,140.2L1082.2,142.7L1082.7,145.1L1082.8,147.3L1083.5,149.6L1083.9,151.1L1083.4,150.8L1083.6,150.4L1083.5,151.3L1083.5,153.5L1083.7,156.0L1084.0,158.6L1083.8,160.8L1083.6,163.2L1082.5,166.8L1082.2,173.9L1082.7,179.6L1085.1,182.3L1085.1,185.7L1084.6,187.6L1082.6,189.4L1082.2,192.2L1081.6,196.1L1081.4,199.4L1081.1,202.6L1080.9,205.5L1081.0,208.2L1081.5,211.0L1081.9,213.9L1081.8,216.3L1081.5,218.3L1081.3,220.2L1081.2,221.7" fill="none" stroke="#3d2400" stroke-width="6" stroke-linecap="round" opacity="0.5"/>
<path d="M1081.1,221.9L1080.8,226.0L1080.5,228.8L1079.5,232.1L1079.0,234.4L1078.5,236.8L1077.7,239.4L1076.8,241.5L1076.4,243.3L1075.9,245.4L1074.0,248.0L1072.4,250.8L1071.0,253.2L1069.8,255.0L1069.3,255.6L1068.3,256.3L1066.1,257.9L1063.3,259.8L1059.8,262.4L1057.1,264.0L1055.3,264.3L1053.2,266.4L1050.2,267.6L1046.7,268.4L1042.9,268.6L1039.8,268.2L1038.0,266.8L1035.3,265.2L1032.0,263.6L1027.7,261.7L1024.5,259.3L1020.7,256.4L1016.8,253.0L1013.9,248.8L1011.1,246.6L1008.2,244.2L1005.2,240.9L1002.8,238.7L1000.1,235.4L996.7,232.4L994.0,230.2L991.2,228.6L986.2,227.0L984.5,223.7L984.5,219.3L984.3,214.5L983.7,209.4L982.8,204.7L982.3,200.3L981.5,195.9L981.5,191.4L981.4,187.2L981.1,183.6L981.3,180.9L981.8,177.8L981.8,174.6L982.1,172.1L983.4,170.2L984.0,168.1L984.7,165.6L985.4,162.9L985.9,159.7L985.7,156.8L986.5,154.0L987.9,151.9L989.3,150.5L990.6,149.5L991.9,148.5L993.2,147.1L994.5,146.0L995.9,145.3L997.4,145.4L999.0,145.4L1001.2,145.8L1002.8,146.2L1004.2,146.4L1005.6,146.2L1006.9,146.0L1008.1,145.7L1009.2,145.6L1010.2,145.6L1011.2,145.5L1012.1,145.5L1013.0,145.5L1014.0,145.5L1014.9,145.7L1015.8,146.0L1016.7,146.2L1017.4,146.2L1017.8,145.8L1017.9,145.1L1017.9,144.9L1017.6,144.9L1018.6,144.2L1020.7,143.2L1023.0,142.4L1025.0,141.7L1027.0,141.1L1029.1,140.5L1031.2,140.5L1033.1,140.8L1035.2,140.5L1037.3,139.8L1039.8,138.6L1042.7,137.3L1045.6,136.4L1048.1,135.8L1050.6,136.4L1053.6,137.6L1055.9,137.9L1058.8,137.2L1062.6,137.1L1065.8,138.3L1068.0,139.8L1070.7,142.5L1075.5,143.6L1079.1,144.0L1082.5,145.1L1082.6,145.1" fill="none" stroke="#3d2400" stroke-width="6" stroke-linecap="round" opacity="0.5"/>
<path d="M1082.8,145.2L1089.1,147.2L1092.4,148.1L1095.9,147.4L1099.3,145.9L1101.5,146.0L1104.2,148.7L1106.7,151.5L1109.2,153.4L1112.0,155.7L1115.0,158.0L1117.3,160.0L1118.3,161.3L1119.3,164.6L1121.4,168.1L1123.1,169.8L1126.1,171.8" fill="none" stroke="#3d2400" stroke-width="6" stroke-linecap="round" opacity="0.5"/>
<path d="M1126.1,171.8L1128.2,174.9L1129.1,177.5L1128.7,179.5L1128.3,181.3L1128.3,182.9L1128.5,184.3L1128.1,187.1L1127.0,190.6L1125.9,194.6L1125.2,198.2L1125.2,201.3L1125.3,204.2L1124.8,206.2L1122.6,208.0L1120.9,211.6L1119.0,214.1L1116.4,216.0L1113.5,217.6L1110.3,218.7L1107.6,219.7L1102.7,220.4L1098.6,221.7L1095.5,221.8L1092.4,222.6L1089.3,222.5L1086.5,222.3L1083.5,222.8L1081.0,221.8L1078.7,221.7L1076.1,222.0L1073.0,222.2L1070.1,221.9L1067.3,221.5L1064.0,220.7L1060.8,219.1L1055.8,215.1L1051.5,216.8L1048.1,217.6L1045.0,216.0L1043.2,213.4L1042.1,211.3L1039.6,209.8L1036.9,208.7L1034.1,207.5L1031.5,206.7L1028.9,206.4L1026.3,206.2L1024.0,206.0L1021.9,206.0L1020.0,206.1L1018.2,206.2L1016.6,206.3L1015.2,206.5L1013.8,206.7L1012.3,206.8L1010.7,206.7L1008.9,206.6L1006.6,206.5L1004.1,206.5L1001.8,206.7L1000.1,207.1L998.6,207.5L996.5,207.8L994.4,207.2L992.2,205.9L989.8,204.7L987.5,203.9L985.0,202.9L982.6,201.7L982.5,201.6" fill="none" stroke="#C47A00" stroke-width="2.5" stroke-linecap="round" opacity="0.95"/>
<path d="M982.4,201.6L976.6,198.7L972.4,194.1L967.9,190.4L965.8,188.5L961.9,187.2L960.7,180.3L958.4,175.5L958.5,172.2L958.3,168.8L958.0,166.3L957.2,163.5L956.0,159.6L954.3,156.4L953.6,152.9L953.7,149.5L953.4,146.4L953.8,142.4L954.2,138.9L952.9,136.5L952.8,133.7L954.5,129.9L956.4,126.3L958.5,123.0L960.8,119.9L961.9,117.1L964.4,112.6L969.1,107.7L972.8,104.0L976.5,99.9L980.0,97.4L982.2,96.1L984.9,96.1L985.7,94.3L987.9,94.8L993.7,96.1L996.8,97.4L1002.7,96.2L1009.1,94.1L1014.0,91.8L1018.3,91.9L1022.3,92.6L1025.9,91.9L1030.2,93.9L1035.3,97.7L1039.1,98.9L1042.0,100.2L1043.8,101.5L1048.2,104.3L1054.5,107.3L1061.1,109.2L1064.2,111.8L1066.8,114.8L1069.4,117.5L1071.6,119.9L1071.9,121.4L1073.4,123.1L1076.1,124.1L1078.2,127.0L1076.7,129.4L1075.9,130.5L1076.6,132.2L1077.3,134.1L1078.1,136.7L1080.0,140.2L1082.2,142.7L1082.7,145.1L1082.8,147.3L1083.5,149.6L1083.9,151.1L1083.4,150.8L1083.6,150.4L1083.5,151.3L1083.5,153.5L1083.7,156.0L1084.0,158.6L1083.8,160.8L1083.6,163.2L1082.5,166.8L1082.2,173.9L1082.7,179.6L1085.1,182.3L1085.1,185.7L1084.6,187.6L1082.6,189.4L1082.2,192.2L1081.6,196.1L1081.4,199.4L1081.1,202.6L1080.9,205.5L1081.0,208.2L1081.5,211.0L1081.9,213.9L1081.8,216.3L1081.5,218.3L1081.3,220.2L1081.2,221.7" fill="none" stroke="#C47A00" stroke-width="2.5" stroke-linecap="round" opacity="0.95"/>
<path d="M1081.1,221.9L1080.8,226.0L1080.5,228.8L1079.5,232.1L1079.0,234.4L1078.5,236.8L1077.7,239.4L1076.8,241.5L1076.4,243.3L1075.9,245.4L1074.0,248.0L1072.4,250.8L1071.0,253.2L1069.8,255.0L1069.3,255.6L1068.3,256.3L1066.1,257.9L1063.3,259.8L1059.8,262.4L1057.1,264.0L1055.3,264.3L1053.2,266.4L1050.2,267.6L1046.7,268.4L1042.9,268.6L1039.8,268.2L1038.0,266.8L1035.3,265.2L1032.0,263.6L1027.7,261.7L1024.5,259.3L1020.7,256.4L1016.8,253.0L1013.9,248.8L1011.1,246.6L1008.2,244.2L1005.2,240.9L1002.8,238.7L1000.1,235.4L996.7,232.4L994.0,230.2L991.2,228.6L986.2,227.0L984.5,223.7L984.5,219.3L984.3,214.5L983.7,209.4L982.8,204.7L982.3,200.3L981.5,195.9L981.5,191.4L981.4,187.2L981.1,183.6L981.3,180.9L981.8,177.8L981.8,174.6L982.1,172.1L983.4,170.2L984.0,168.1L984.7,165.6L985.4,162.9L985.9,159.7L985.7,156.8L986.5,154.0L987.9,151.9L989.3,150.5L990.6,149.5L991.9,148.5L993.2,147.1L994.5,146.0L995.9,145.3L997.4,145.4L999.0,145.4L1001.2,145.8L1002.8,146.2L1004.2,146.4L1005.6,146.2L1006.9,146.0L1008.1,145.7L1009.2,145.6L1010.2,145.6L1011.2,145.5L1012.1,145.5L1013.0,145.5L1014.0,145.5L1014.9,145.7L1015.8,146.0L1016.7,146.2L1017.4,146.2L1017.8,145.8L1017.9,145.1L1017.9,144.9L1017.6,144.9L1018.6,144.2L1020.7,143.2L1023.0,142.4L1025.0,141.7L1027.0,141.1L1029.1,140.5L1031.2,140.5L1033.1,140.8L1035.2,140.5L1037.3,139.8L1039.8,138.6L1042.7,137.3L1045.6,136.4L1048.1,135.8L1050.6,136.4L1053.6,137.6L1055.9,137.9L1058.8,137.2L1062.6,137.1L1065.8,138.3L1068.0,139.8L1070.7,142.5L1075.5,143.6L1079.1,144.0L1082.5,145.1L1082.6,145.1" fill="none" stroke="#C47A00" stroke-width="2.5" stroke-linecap="round" opacity="0.95"/>
<path d="M1082.8,145.2L1089.1,147.2L1092.4,148.1L1095.9,147.4L1099.3,145.9L1101.5,146.0L1104.2,148.7L1106.7,151.5L1109.2,153.4L1112.0,155.7L1115.0,158.0L1117.3,160.0L1118.3,161.3L1119.3,164.6L1121.4,168.1L1123.1,169.8L1126.1,171.8" fill="none" stroke="#C47A00" stroke-width="2.5" stroke-linecap="round" opacity="0.95"/>
<path d="M1126.1,171.8L1128.2,174.9L1129.1,177.5L1128.7,179.5L1128.3,181.3L1128.3,182.9L1128.5,184.3L1128.1,187.1L1127.0,190.6L1125.9,194.6L1125.2,198.2L1125.2,201.3L1125.3,204.2L1124.8,206.2L1122.6,208.0L1120.9,211.6L1119.0,214.1L1116.4,216.0L1113.5,217.6L1110.3,218.7L1107.6,219.7L1102.7,220.4L1098.6,221.7L1095.5,221.8L1092.4,222.6L1089.3,222.5L1086.5,222.3L1083.5,222.8L1081.0,221.8L1078.7,221.7L1076.1,222.0L1073.0,222.2L1070.1,221.9L1067.3,221.5L1064.0,220.7L1060.8,219.1L1055.8,215.1L1051.5,216.8L1048.1,217.6L1045.0,216.0L1043.2,213.4L1042.1,211.3L1039.6,209.8L1036.9,208.7L1034.1,207.5L1031.5,206.7L1028.9,206.4L1026.3,206.2L1024.0,206.0L1021.9,206.0L1020.0,206.1L1018.2,206.2L1016.6,206.3L1015.2,206.5L1013.8,206.7L1012.3,206.8L1010.7,206.7L1008.9,206.6L1006.6,206.5L1004.1,206.5L1001.8,206.7L1000.1,207.1L998.6,207.5L996.5,207.8L994.4,207.2L992.2,205.9L989.8,204.7L987.5,203.9L985.0,202.9L982.6,201.7L982.5,201.6" fill="none" stroke="#FFB800" stroke-width="0.8" stroke-linecap="round" opacity="0.45"/>
<path d="M982.4,201.6L976.6,198.7L972.4,194.1L967.9,190.4L965.8,188.5L961.9,187.2L960.7,180.3L958.4,175.5L958.5,172.2L958.3,168.8L958.0,166.3L957.2,163.5L956.0,159.6L954.3,156.4L953.6,152.9L953.7,149.5L953.4,146.4L953.8,142.4L954.2,138.9L952.9,136.5L952.8,133.7L954.5,129.9L956.4,126.3L958.5,123.0L960.8,119.9L961.9,117.1L964.4,112.6L969.1,107.7L972.8,104.0L976.5,99.9L980.0,97.4L982.2,96.1L984.9,96.1L985.7,94.3L987.9,94.8L993.7,96.1L996.8,97.4L1002.7,96.2L1009.1,94.1L1014.0,91.8L1018.3,91.9L1022.3,92.6L1025.9,91.9L1030.2,93.9L1035.3,97.7L1039.1,98.9L1042.0,100.2L1043.8,101.5L1048.2,104.3L1054.5,107.3L1061.1,109.2L1064.2,111.8L1066.8,114.8L1069.4,117.5L1071.6,119.9L1071.9,121.4L1073.4,123.1L1076.1,124.1L1078.2,127.0L1076.7,129.4L1075.9,130.5L1076.6,132.2L1077.3,134.1L1078.1,136.7L1080.0,140.2L1082.2,142.7L1082.7,145.1L1082.8,147.3L1083.5,149.6L1083.9,151.1L1083.4,150.8L1083.6,150.4L1083.5,151.3L1083.5,153.5L1083.7,156.0L1084.0,158.6L1083.8,160.8L1083.6,163.2L1082.5,166.8L1082.2,173.9L1082.7,179.6L1085.1,182.3L1085.1,185.7L1084.6,187.6L1082.6,189.4L1082.2,192.2L1081.6,196.1L1081.4,199.4L1081.1,202.6L1080.9,205.5L1081.0,208.2L1081.5,211.0L1081.9,213.9L1081.8,216.3L1081.5,218.3L1081.3,220.2L1081.2,221.7" fill="none" stroke="#FFB800" stroke-width="0.8" stroke-linecap="round" opacity="0.45"/>
<path d="M1081.1,221.9L1080.8,226.0L1080.5,228.8L1079.5,232.1L1079.0,234.4L1078.5,236.8L1077.7,239.4L1076.8,241.5L1076.4,243.3L1075.9,245.4L1074.0,248.0L1072.4,250.8L1071.0,253.2L1069.8,255.0L1069.3,255.6L1068.3,256.3L1066.1,257.9L1063.3,259.8L1059.8,262.4L1057.1,264.0L1055.3,264.3L1053.2,266.4L1050.2,267.6L1046.7,268.4L1042.9,268.6L1039.8,268.2L1038.0,266.8L1035.3,265.2L1032.0,263.6L1027.7,261.7L1024.5,259.3L1020.7,256.4L1016.8,253.0L1013.9,248.8L1011.1,246.6L1008.2,244.2L1005.2,240.9L1002.8,238.7L1000.1,235.4L996.7,232.4L994.0,230.2L991.2,228.6L986.2,227.0L984.5,223.7L984.5,219.3L984.3,214.5L983.7,209.4L982.8,204.7L982.3,200.3L981.5,195.9L981.5,191.4L981.4,187.2L981.1,183.6L981.3,180.9L981.8,177.8L981.8,174.6L982.1,172.1L983.4,170.2L984.0,168.1L984.7,165.6L985.4,162.9L985.9,159.7L985.7,156.8L986.5,154.0L987.9,151.9L989.3,150.5L990.6,149.5L991.9,148.5L993.2,147.1L994.5,146.0L995.9,145.3L997.4,145.4L999.0,145.4L1001.2,145.8L1002.8,146.2L1004.2,146.4L1005.6,146.2L1006.9,146.0L1008.1,145.7L1009.2,145.6L1010.2,145.6L1011.2,145.5L1012.1,145.5L1013.0,145.5L1014.0,145.5L1014.9,145.7L1015.8,146.0L1016.7,146.2L1017.4,146.2L1017.8,145.8L1017.9,145.1L1017.9,144.9L1017.6,144.9L1018.6,144.2L1020.7,143.2L1023.0,142.4L1025.0,141.7L1027.0,141.1L1029.1,140.5L1031.2,140.5L1033.1,140.8L1035.2,140.5L1037.3,139.8L1039.8,138.6L1042.7,137.3L1045.6,136.4L1048.1,135.8L1050.6,136.4L1053.6,137.6L1055.9,137.9L1058.8,137.2L1062.6,137.1L1065.8,138.3L1068.0,139.8L1070.7,142.5L1075.5,143.6L1079.1,144.0L1082.5,145.1L1082.6,145.1" fill="none" stroke="#FFB800" stroke-width="0.8" stroke-linecap="round" opacity="0.45"/>
<path d="M1082.8,145.2L1089.1,147.2L1092.4,148.1L1095.9,147.4L1099.3,145.9L1101.5,146.0L1104.2,148.7L1106.7,151.5L1109.2,153.4L1112.0,155.7L1115.0,158.0L1117.3,160.0L1118.3,161.3L1119.3,164.6L1121.4,168.1L1123.1,169.8L1126.1,171.8" fill="none" stroke="#FFB800" stroke-width="0.8" stroke-linecap="round" opacity="0.45"/>
</g>
<g transform="translate(80, 115)" filter="url(#glow)">
  <path d="M0,0 L9.600000000000001,0 L9.600000000000001,33.6 L30.4,33.6 L30.4,0 L40.0,0 L40.0,80 L30.4,80 L30.4,46.4 L9.600000000000001,46.4 L9.600000000000001,80 L0,80 Z" fill="#FFB800"/>
  <path d="M54.4,0 L68.8,0 L68.8,24.0 Q82.4,0 82.4,16.0 L82.4,64.0 Q82.4,80 68.8,56.0 L68.8,80 L54.4,80 Z" fill="#FFB800"/>
  <path d="M108.8,0 L118.4,0 L118.4,70.4 L148.8,70.4 L148.8,80 L108.8,80 Z" fill="#FFB800"/>
  <path d="M203.2,0 L177.6,0 Q163.2,0 163.2,12.0 L163.2,32.0 Q163.2,40.0 177.6,40.0 L188.79999999999998,40.0 Q203.2,40.0 203.2,48.0 L203.2,68.0 Q203.2,80 188.79999999999998,80 L163.2,80 L163.2,70.4 L188.79999999999998,70.4 Q203.2,70.4 203.2,68.0 L203.2,52.0 Q203.2,46.4 188.79999999999998,46.4 L177.6,46.4 Q163.2,46.4 163.2,40.0 L163.2,12.0 Q163.2,0 177.6,0 Z" fill="#FFB800"/>
</g>
<text x="84" y="212" font-family="monospace" font-size="14" fill="#CC8800" letter-spacing="3" opacity="0.85">METRICS // SIGNAL CHAIN</text>
<line x1="80" y1="228" x2="480" y2="228" stroke="#C47A00" stroke-width="0.5" opacity="0.35"/>
<text x="80" y="248" font-family="monospace" font-size="10" fill="#7A5200" letter-spacing="1" opacity="0.5">// trefoil_knot // fBM_domain_warp</text>
<text x="80" y="264" font-family="monospace" font-size="10" fill="#7A5200" letter-spacing="1" opacity="0.4">/// frame 29/30</text>
<polyline points="10,10 10,24 24,10" fill="none" stroke="#7A5200" stroke-width="0.8" opacity="0.5"/>
<polyline points="1270,10 1270,24 1256,10" fill="none" stroke="#7A5200" stroke-width="0.8" opacity="0.5"/>
<polyline points="10,310 10,296 24,310" fill="none" stroke="#7A5200" stroke-width="0.8" opacity="0.5"/>
<polyline points="1270,310 1270,296 1256,310" fill="none" stroke="#7A5200" stroke-width="0.8" opacity="0.5"/>
<text x="1260" y="302" font-family="monospace" font-size="9" fill="#7A5200" text-anchor="end" opacity="0.5">1280x320 // TREFOIL // ANIMATED</text>
<rect x="0" y="0" width="1280" height="320" fill="url(#scanlines)"/>
<rect x="0" y="0" width="1280" height="320" fill="url(#vignette)"/>
</svg>